<svg width="150" height="150" viewBox="0 0 150 150" xmlns="http://www.w3.org/2000/svg"><g fill="none" fill-rule="evenodd"><path d="M150 75c0 41.421-33.579 75-75 75S0 116.421 0 75 33.579 0 75 0s75 33.579 75 75" fill="#EEE"/><g transform="translate(96 83)" fill="#FFF"><circle cx="13.5" cy="8.5" r="8.5"/><path d="M13.942 33.952h13.943C27.885 25.694 21.642 19 13.942 19 6.242 19 0 25.694 0 33.952h13.942z"/></g><g fill="#FFF"><path d="M39.228 116.863h14.227c0-8.209-6.37-14.863-14.227-14.863C31.37 102 25 108.654 25 116.863h14.228zM38.478 100C43.194 100 47 97.019 47 91.195 47 86.67 43.194 83 38.5 83S30 86.67 30 91.195c0 5.46 3.762 8.805 8.478 8.805z"/></g><path d="M74.665 56.877V84.12" stroke="#FAFAFA" stroke-width="3" stroke-linecap="round" stroke-linejoin="round"/><g transform="translate(56.634 92.925)" fill="#FFF"><circle cx="18" cy="11" r="11"/><path d="M18.14 43.517h18.14C36.28 32.737 28.16 24 18.14 24 8.122 24 0 32.738 0 43.517h18.14z"/></g><g fill="#DDD"><path d="M75 31c5.523 0 10-4.477 10-10s-4.477-10-10-10a10.001 10.001 0 0 0-9.076 5.796A9.962 9.962 0 0 0 65 21c0 5.523 4.477 10 10 10zM75.346 50.67h16.346c0-9.759-7.318-17.67-16.346-17.67S59 40.911 59 50.67h16.346z"/></g><path d="M39 75.51V70a3 3 0 0 1 3-3h66.086a3 3 0 0 1 3 3v5.51" stroke="#FAFAFA" stroke-width="3" stroke-linecap="round" stroke-linejoin="round"/></g></svg>