<svg width="20" height="19" viewBox="0 0 20 19" xmlns="http://www.w3.org/2000/svg"><g fill="none" fill-rule="evenodd"><path d="M19.91 7.327c0-.357-.382-.5-.668-.548l-5.98-.87L10.58.49C10.473.262 10.27 0 9.997 0c-.274 0-.477.262-.584.488L6.733 5.91.75 6.78c-.297.048-.667.19-.667.548 0 .215.155.417.298.572l4.337 4.218-1.025 5.957c-.012.083-.024.155-.024.238 0 .31.155.596.5.596.168 0 .322-.06.477-.143l5.35-2.812 5.35 2.812c.142.083.309.143.476.143.345 0 .488-.286.488-.596 0-.083 0-.155-.012-.238l-1.024-5.957 4.324-4.218c.155-.155.31-.357.31-.572z" fill="#CCC"/><path d="M9.987 0v15.958l-5.34 2.807c-.155.083-.31.143-.476.143-.346 0-.5-.286-.5-.596 0-.083.011-.155.023-.238l1.025-5.957L.382 7.899c-.143-.155-.298-.357-.298-.571v-.001c0-.357.37-.5.667-.548l5.981-.87L9.413.49c.106-.224.305-.483.574-.489z" fill="#26BEC9"/></g></svg>