<svg xmlns="http://www.w3.org/2000/svg" width="100" height="100" viewBox="0 0 100 100"><path fill="#26BEC9" d="M99.985 19.059c0-1.24-.107-2.5-.307-3.721C98.393 7.408 90.899-.043 80.932-.004c-13.773.049-27.538.04-41.308.04v51.366l23.731-23.67h17.217L57.589 52.104l-.011.005c-.186 1.049-.185 4.201-.185 5.302 0 10.039 9.385 18.118 18.188 18.184a17.9 17.9 0 0 0 6.217-1.081v11.797a29.778 29.778 0 0 1-6.285.671c-14.33 0-26.27-11.472-28.975-25.014l-6.914 6.96v17.969H25.85V.049c-2.301.006-4.6 0-6.9.006-2.08.01-4.258.332-6.23.986C4.936 3.639.024 10.68.004 18.971c-.01 10.312 0 20.625 0 30.933 0 10.313-.01 20.625.016 30.938 0 1.282.082 2.571.312 3.828 1.644 8.945 9.3 15.306 18.519 15.312 20.699.032 41.393.032 62.086-.026 1.986 0 4.057-.254 5.938-.859 8.09-2.598 13.109-9.648 13.119-18.157.011-20.626.007-41.246-.009-61.881z"/></svg>