<svg width="254" height="254" xmlns="http://www.w3.org/2000/svg" xmlns:xlink="http://www.w3.org/1999/xlink"><defs><path d="M2 0h123a2 2 0 0 1 2 2v3H0V2a2 2 0 0 1 2-2z" id="a"/></defs><g fill="none" fill-rule="evenodd"><circle fill="#F4F4F4" cx="127" cy="127" r="127"/><path d="M53.705 103.49l72.12-61.263a2 2 0 0 1 2.59 0l72.12 61.264a2 2 0 0 1 .706 1.524v87.075a2 2 0 0 1-2 2H55a2 2 0 0 1-2-2v-87.075a2 2 0 0 1 .705-1.524z" fill="#CCC"/><g transform="translate(64 76)"><rect fill="#FFF" width="127" height="118" rx="2"/><g transform="translate(20 16)" fill="#000" fill-opacity=".06"><rect x="2" width="84" height="4" rx="2"/><rect x="2" y="15" width="24" height="4" rx="2"/><rect x="62" y="15" width="14" height="4" rx="2"/><rect x="2" y="27" width="14" height="4" rx="2"/><rect y="38" width="84" height="4" rx="2"/></g><mask id="b" fill="#fff"><use xlink:href="#a"/></mask><use fill="#FFF" xlink:href="#a"/><path d="M7.031 0h4.829L8.945 4H4l3.031-4zm18.024 0h4.828l-2.915 4h-4.945l3.032-4zm18.023 0h4.828l-2.914 4h-4.945l3.031-4zm18.023 0h4.829l-2.915 4H58.07l3.031-4zm18.024 0h4.828l-2.915 4h-4.944l3.03-4zm18.023 0h4.829l-2.915 4h-4.945l3.031-4zm18.024 0H120l-2.915 4h-4.945l3.032-4z" fill="#8FA3B0" mask="url(#b)"/><path d="M16.05 0h4.828l-2.914 4H13.02l3.03-4zm18.021 0H38.9l-2.915 4h-4.943l3.03-4zm18.02 0h4.828l-2.914 4H49.06l3.03-4zm18.02 0h4.828l-2.914 4H67.08l3.03-4zm18.021 0h4.827l-2.914 4h-4.944l3.031-4zm18.02 0h4.828l-2.915 4h-4.943l3.03-4zm18.02 0H129l-2.914 4h-4.944l3.03-4zM-1.969 0h4.827L-.056 4H-5l3.03-4z" fill="#EBA19B" mask="url(#b)"/></g><path d="M121.656 150.362l-65.559 43.032A2 2 0 0 1 53 191.722v-85.996a2 2 0 0 1 3.096-1.673l65.559 42.964a2 2 0 0 1 .001 3.345zM132.896 149.997l65.58 43.404a2 2 0 0 0 3.104-1.668v-86.739a2 2 0 0 0-3.103-1.668l-65.58 43.335a2 2 0 0 0 0 3.336z" fill="#E5E5E5"/><path d="M129.658 132.893l70.847 58.136a2 2 0 0 1-1.27 3.546H55.006a2 2 0 0 1-1.269-3.546l70.847-58.136a4 4 0 0 1 5.075 0z" fill="#ECECEC"/><path d="M128.428 123.94c-5.876 0-10.972-3.614-10.972-10.972 0-8.138 5.98-13.52 13.026-13.52 6.266 0 10.244 4.238 10.244 10.296 0 5.33-3.51 8.034-6.5 8.034-1.664 0-3.016-.78-3.302-2.236h-.052c-.858 1.17-2.34 1.976-3.562 1.976-2.236 0-3.796-1.664-3.796-4.368 0-3.458 2.496-7.124 5.876-7.124.988 0 1.768.442 2.262 1.456h.052l.416-1.222h2.366l-1.274 6.344c-.468 1.898 0 2.782 1.404 2.782 1.794 0 3.64-2.132 3.64-5.512 0-4.394-2.418-8.06-8.086-8.06-5.096 0-10.114 4.342-10.114 11.05 0 5.798 3.952 8.71 8.684 8.71 1.586 0 3.302-.494 4.55-1.196l.858 2.132c-1.768.988-3.64 1.43-5.72 1.43zm-.312-8.84c.676 0 1.326-.416 2.158-1.456l.754-4.16c-.39-.65-.884-.962-1.534-.962-1.898 0-3.094 2.522-3.094 4.42 0 1.456.702 2.158 1.716 2.158z" fill="#138184"/></g></svg>