<svg width="186" height="46" xmlns="http://www.w3.org/2000/svg"><g fill="#FFF" fill-rule="evenodd"><path d="M10.238 18.064a49.895 49.895 0 0 0-.025 1.657c0 3.252 3.039 5.867 5.89 5.887a5.729 5.729 0 0 0 2.012-.35v3.82a9.613 9.613 0 0 1-2.034.218c-4.64 0-8.508-3.716-9.384-8.098L4.46 23.451v5.816H0V.668h4.46v17.108l7.684-7.665h5.575l-7.48 7.953zm49.451-6.746v8.48c0 5.286-4.284 9.572-9.57 9.572a9.57 9.57 0 0 1-9.57-9.571 9.57 9.57 0 0 1 15.058-7.84V0h4.082v11.318zm-9.55 14.364a5.887 5.887 0 1 0 0-11.776 5.889 5.889 0 1 0 0 11.776zm1.945-5.92a1.965 1.965 0 1 1-3.929-.001 1.965 1.965 0 0 1 3.93.001zm19.105-9.506c5.286 0 9.57 4.285 9.57 9.57l-.093 8.23v1.349H76.65v-1.722a9.571 9.571 0 1 1-5.462-17.427zm0 15.568a5.888 5.888 0 1 0-.001-11.776 5.888 5.888 0 0 0 0 11.776zm.02-8.024a1.965 1.965 0 1 1 0 3.93 1.965 1.965 0 0 1 0-3.93zm-34.782 7.837a5.85 5.85 0 0 0 2.745-.68c.093-.048.163-.272.271-.152.108.12 2.233 2.932 2.233 2.932a9.509 9.509 0 0 1-5.269 1.588c-4.662 0-8.542-3.609-9.394-8.022l-2.226 2.242v5.68h-4.462V.447h4.462V17.87l7.758-7.76h5.579l-7.52 7.576c-.05.672-.065 1.44-.065 2.063a5.888 5.888 0 0 0 5.888 5.888zm65.076-5.79v16.005l-.003.002c0 .048.003.096.003.143 0 5.297-4.294 9.591-9.592 9.591-4.966 0-9.051-3.926-9.541-8.762l4.08.015c.044.45.096.959.16 1.19.514 1.853 2.712 3.857 5.301 3.857 2.59 0 4.823-2.004 5.302-3.96.268-1.087.322-6.087.319-10.311a9.54 9.54 0 0 1-5.62 1.821c-5.297 0-9.593-4.294-9.593-9.591 0-.048.004-.095.004-.143l-.004-.002V10.11h4.015s-.238 9.916.276 11.77c.514 1.854 2.712 3.856 5.301 3.856 2.59 0 4.823-2.003 5.302-3.958.48-1.956.275-11.668.275-11.668h4.015v9.59l-.003.003c0 .048.003.095.003.143zM120.56 9.774h1.451l8.527 21.588h-1.421l-2.722-6.924h-10.34l-2.752 6.924h-1.42l8.677-21.588zm5.412 13.515l-4.626-12.215h-.06l-4.808 12.215h9.494zm18.746-7.468v14.725c0 .866-.1 1.708-.302 2.524a5.607 5.607 0 0 1-1.043 2.162c-.494.625-1.175 1.124-2.041 1.497-.867.373-1.966.56-3.296.56a10.11 10.11 0 0 1-2.328-.258 5.619 5.619 0 0 1-1.905-.816 4.162 4.162 0 0 1-1.315-1.482c-.333-.615-.52-1.376-.56-2.283h1.15c.06.686.231 1.27.513 1.754.283.484.65.882 1.104 1.194.454.313.963.54 1.527.68.564.142 1.169.212 1.814.212 1.068 0 1.96-.161 2.676-.483.715-.323 1.285-.741 1.708-1.255.423-.514.72-1.099.892-1.754a7.797 7.797 0 0 0 .257-1.98V27.25h-.06c-.545 1.149-1.285 2.026-2.223 2.63-.937.605-2.07.907-3.401.907-1.15 0-2.142-.196-2.978-.59a5.754 5.754 0 0 1-2.087-1.632 7.037 7.037 0 0 1-1.24-2.434c-.271-.927-.407-1.935-.407-3.023 0-1.028.146-2.006.438-2.933a7.3 7.3 0 0 1 1.285-2.434 6.208 6.208 0 0 1 2.101-1.663c.837-.413 1.8-.62 2.888-.62 1.23 0 2.363.312 3.401.937 1.038.625 1.78 1.512 2.223 2.661h.06v-3.235h1.15zm-6.833.635c-.948 0-1.769.191-2.464.574a5.196 5.196 0 0 0-1.724 1.512 6.859 6.859 0 0 0-1.028 2.132 8.664 8.664 0 0 0-.347 2.434c0 .907.115 1.768.347 2.585a6.13 6.13 0 0 0 1.058 2.131 5.169 5.169 0 0 0 1.754 1.437c.696.352 1.497.529 2.404.529.947 0 1.774-.182 2.48-.545a5.14 5.14 0 0 0 1.768-1.481 6.5 6.5 0 0 0 1.058-2.132 8.988 8.988 0 0 0 .348-2.524c0-.867-.116-1.704-.348-2.51a6.31 6.31 0 0 0-1.058-2.132A5.21 5.21 0 0 0 140.364 17c-.705-.363-1.532-.544-2.48-.544zm10.673 7.287v.181c0 .907.12 1.774.363 2.6.242.827.6 1.552 1.073 2.177a5.1 5.1 0 0 0 1.784 1.482c.716.363 1.547.544 2.495.544 1.552 0 2.781-.408 3.688-1.225.907-.816 1.532-1.95 1.875-3.401h1.149c-.343 1.814-1.084 3.205-2.223 4.172-1.138.968-2.645 1.452-4.52 1.452-1.149 0-2.151-.207-3.008-.62a6.122 6.122 0 0 1-2.147-1.693c-.574-.716-1.003-1.562-1.285-2.54a11.348 11.348 0 0 1-.423-3.16c0-1.088.146-2.131.438-3.13a7.866 7.866 0 0 1 1.315-2.63 6.515 6.515 0 0 1 2.193-1.814c.876-.453 1.91-.68 3.099-.68 1.088 0 2.05.202 2.887.605a6.048 6.048 0 0 1 2.102 1.648 7.324 7.324 0 0 1 1.285 2.418c.292.918.438 1.9.438 2.948 0 .101-.005.217-.015.348-.01.131-.015.237-.015.318h-12.548zm11.399-.998a9.306 9.306 0 0 0-.424-2.404 5.953 5.953 0 0 0-1.073-1.995 5.339 5.339 0 0 0-1.723-1.376c-.676-.343-1.447-.514-2.313-.514-.928 0-1.744.176-2.45.529-.705.353-1.3.816-1.783 1.39a6.203 6.203 0 0 0-1.119 2.011 9.437 9.437 0 0 0-.484 2.359h11.369zm3.84-6.924h1.149v3.326h.06a4.987 4.987 0 0 1 .862-1.557 5.727 5.727 0 0 1 2.918-1.89 6.678 6.678 0 0 1 1.783-.242c.908 0 1.679.11 2.313.333.635.221 1.154.514 1.558.876.403.363.72.771.952 1.225.232.454.398.912.499 1.376.1.463.161.912.181 1.345.02.434.03.811.03 1.134v9.615h-1.148v-9.827c0-.383-.03-.866-.091-1.45a4.412 4.412 0 0 0-.53-1.679c-.292-.534-.735-.993-1.33-1.376-.594-.383-1.416-.574-2.464-.574-.887 0-1.673.161-2.358.484a5.109 5.109 0 0 0-1.754 1.345c-.484.575-.851 1.26-1.103 2.056s-.378 1.668-.378 2.615v8.406h-1.15V15.82zm21.406.998h-3.386v10.854c0 .625.07 1.119.212 1.482.14.363.357.64.65.831.292.192.645.308 1.058.348.413.04.892.05 1.436.03v.998a10.71 10.71 0 0 1-1.708-.015 3.436 3.436 0 0 1-1.467-.454c-.423-.252-.76-.63-1.012-1.134-.252-.504-.358-1.199-.318-2.086V16.82h-2.872v-.998h2.872v-4.838h1.149v4.838h3.386v.998z"/></g></svg>