<svg width="768" height="768" viewBox="0 0 768 768" xmlns="http://www.w3.org/2000/svg"><g fill="none" fill-rule="evenodd"><path d="M759.001 384c0 207.105-167.895 375-375.001 375C176.894 759 9 591.105 9 384 9 176.893 176.894 9 384 9s375.001 167.893 375.001 375" fill="#EEE"/><path d="M622.494 202.893l-520.423 73.14c-10.042 1.413-17.037 10.695-15.627 20.737l14.054 99.993c20.082-2.822 38.649 11.168 41.472 31.25 2.822 20.082-11.17 38.65-31.252 41.474l14.053 99.993c1.412 10.043 10.696 17.036 20.737 15.626l520.423-73.141c10.04-1.412 17.037-10.692 15.625-20.736l-38.328-272.711c-1.41-10.042-10.694-17.035-20.734-15.625" fill="#FFF"/><path d="M142.952 566.924l-11.937-84.928c20.11-10.478 32.465-32.833 29.135-56.536-3.332-23.704-21.37-41.787-43.59-46.318l-11.935-84.93 520.423-73.14 38.327 272.71-520.423 73.142z" fill="#DDD"/><path fill="#F0F0F0" d="M250.725 311.368l8.803-1.237-3.544-25.216-8.803 1.237zM256.002 348.92l8.803-1.236-3.544-25.216-8.803 1.237zM261.28 386.472l8.803-1.237-3.544-25.216-8.803 1.237zM266.558 424.027l8.802-1.237-3.543-25.21-8.802 1.236zM271.836 461.58l8.803-1.236-3.544-25.217-8.803 1.237zM277.114 499.139l8.803-1.237-3.544-25.213-8.802 1.237zM282.391 536.684l8.802-1.237-3.543-25.21-8.802 1.236z"/><path d="M542.286 350.222c1.082 7.7-7.216 15.143-8.494 22.409-1.326 7.526 3.842 17.358.322 23.963-3.556 6.675-14.623 7.867-20.058 13.124-5.381 5.2-6.933 16.246-13.804 19.596-6.632 3.232-16.248-2.276-23.946-1.194-7.7 1.082-15.425 9.026-22.69 7.748-7.527-1.328-12.065-11.516-18.67-15.034-6.672-3.555-17.643-1.651-22.9-7.084-5.203-5.382-2.945-16.256-6.295-23.127-3.232-6.63-13.261-11.498-14.342-19.196-1.082-7.698 7.217-15.143 8.495-22.407 1.325-7.53-3.841-17.358-.323-23.963 3.555-6.673 14.626-7.87 20.059-13.124 5.38-5.204 6.934-16.246 13.804-19.598 6.63-3.232 16.246 2.276 23.945 1.194 7.699-1.082 15.427-9.026 22.69-7.747 7.529 1.325 12.065 11.513 18.67 15.033 6.674 3.553 17.646 1.65 22.9 7.084 5.204 5.383 2.947 16.254 6.296 23.127 3.23 6.63 13.259 11.498 14.34 19.196" fill="#CCC"/><path d="M530.409 351.892c.903 6.417-7.366 12.599-8.434 18.653-1.105 6.28 4.48 14.91 1.548 20.416-2.962 5.565-13.27 5.746-17.801 10.125-4.483 4.338-5.001 14.652-10.73 17.442-5.527 2.694-13.938-3.188-20.356-2.288-6.416.902-12.882 8.879-18.935 7.81-6.276-1.102-9.616-10.873-15.125-13.806-5.56-2.964-15.52-.297-19.901-4.827-4.336-4.485-1.348-14.322-4.141-20.053-2.693-5.525-12.344-9.187-13.245-15.605-.902-6.42 7.365-12.6 8.43-18.655 1.106-6.275-4.48-14.912-1.547-20.418 2.962-5.561 13.273-5.744 17.8-10.125 4.485-4.334 5.005-14.648 10.732-17.441 5.525-2.693 13.939 3.189 20.355 2.288 6.419-.903 12.88-8.875 18.938-7.81 6.275 1.104 9.617 10.876 15.123 13.81 5.56 2.962 15.52.295 19.9 4.824 4.34 4.485 1.347 14.324 4.139 20.053 2.697 5.525 12.348 9.19 13.25 15.607" fill="#FFF"/><path d="M472.498 369.052c-.118-.837-.583-4.188-.551-5.005l.134.965 14.814-20.911-13.041 1.834-15.454 20.458-5.473-38.945-10.435 1.466 9.251 65.826 10.435-1.467-1.911-13.606 4.492-6.005c3.487 9.964 13.756 17.382 24.613 15.858a22.651 22.651 0 0 0 4.684-1.18l-1.256-8.936a13.435 13.435 0 0 1-4.592 1.482c-6.675.89-14.642-4.232-15.71-11.834" fill="#CCC"/><path fill="#EEE" d="M595.616 456.935l-229.533 32.26-1.277-9.091 229.533-32.26zM569.436 480.9L408.65 503.496l-1.278-9.092 160.787-22.596z"/></g></svg>