<svg width="768" height="768" viewBox="0 0 768 768" xmlns="http://www.w3.org/2000/svg"><g transform="translate(9 9)" fill="none" fill-rule="evenodd"><circle fill="#EEE" cx="375" cy="375" r="375"/><path d="M453.554 429.245c-1.472-21.384-17.818-23.085-28.952-14.041l-13.586 11.04c-11.133 9.048-12.834 25.415 8.766 29.046l35.233 42.283 32.597-27.2-34.058-41.128z" fill="#FFF"/><path d="M222.751 171.468c-64.46 52.377-74.347 147.501-22.04 212.047 52.31 64.547 147.304 74.448 211.765 22.07 64.458-52.377 74.35-147.5 22.045-212.045-52.308-64.548-147.309-74.45-211.77-22.072m223.58 275.902c-87.465 71.07-216.369 57.637-287.35-29.948-70.973-87.587-57.557-216.665 29.91-287.736 87.47-71.071 216.376-57.639 287.354 29.95 70.976 87.582 57.56 216.663-29.913 287.734" fill="#DDD"/><ellipse fill="#FFF" cx="317.844" cy="288.527" rx="164.979" ry="165.199"/><path d="M318.329 387.747c-4.86 0-9.1-1.575-12.724-4.725-3.625-3.15-5.436-7.555-5.436-13.218 0-5.024 1.75-9.25 5.257-12.68 3.504-3.429 7.805-5.143 12.903-5.143 5.016 0 9.237 1.714 12.663 5.143 3.423 3.43 5.136 7.656 5.136 12.68 0 5.583-1.792 9.97-5.376 13.159-3.584 3.188-7.725 4.784-12.423 4.784m-58.3-131.108c0-7.577 2.428-15.252 7.287-23.029 4.857-7.774 11.947-14.213 21.265-19.319 9.318-5.102 20.19-7.656 32.614-7.656 11.548 0 21.743 2.135 30.584 6.4 8.84 4.267 15.668 10.07 20.488 17.406 4.818 7.338 7.228 15.311 7.228 23.925 0 6.779-1.374 12.722-4.121 17.823-2.749 5.106-6.015 9.511-9.797 13.22-3.784 3.708-10.573 9.949-20.369 18.72-2.708 2.474-4.88 4.648-6.511 6.52-1.633 1.875-2.848 3.59-3.644 5.144a25.223 25.223 0 0 0-1.852 4.665c-.438 1.556-1.095 4.288-1.97 8.195-1.514 8.295-6.254 12.44-14.216 12.44-4.144 0-7.628-1.354-10.454-4.066-2.829-2.71-4.241-6.739-4.241-12.082 0-6.699 1.034-12.501 3.106-17.406 2.07-4.905 4.818-9.21 8.243-12.919 3.424-3.709 8.044-8.114 13.858-13.219 5.096-4.465 8.781-7.835 11.05-10.109a34.263 34.263 0 0 0 5.735-7.595c1.553-2.791 2.329-5.82 2.329-9.092 0-6.38-2.37-11.763-7.108-16.15-4.74-4.385-10.852-6.578-18.338-6.578-8.762 0-15.212 2.212-19.353 6.639-4.143 4.425-7.646 10.945-10.513 19.558-2.709 9.014-7.845 13.518-15.41 13.518-4.462 0-8.226-1.574-11.29-4.725-3.067-3.15-4.6-6.56-4.6-10.228M594.896 584.096l-98.87-122.008-53.099 44.79 98.068 121.014c9.034 11.149 25.382 12.851 36.514 3.805l13.589-11.042c11.133-9.043 12.834-25.412 3.798-36.56" fill="#CCC"/></g></svg>