<svg width="768" height="768" viewBox="0 0 768 768" xmlns="http://www.w3.org/2000/svg" xmlns:xlink="http://www.w3.org/1999/xlink"><defs><path d="M20.79 0h378.378c11.482 0 20.79 9.308 20.79 20.79v190.33H0V20.79C0 9.308 9.308 0 20.79 0z" id="a"/><rect id="b" x="110.511" y="218.515" width="14.511" height="31.314" rx="7.255"/><rect id="c" x="102.575" y="234.172" width="30.382" height="104.622" rx="10"/><circle id="d" cx="114.425" cy="114.425" r="95.116"/><path d="M437 417.43c0-4.61 1.48-9.281 4.44-14.014 2.961-4.732 7.28-8.65 12.96-11.757 5.678-3.106 12.303-4.659 19.874-4.659 7.037 0 13.25 1.298 18.637 3.895 5.387 2.596 9.549 6.127 12.485 10.592 2.936 4.465 4.404 9.319 4.404 14.56 0 4.126-.837 7.741-2.511 10.848-1.675 3.106-3.665 5.787-5.97 8.044-2.305 2.257-6.443 6.055-12.412 11.393-1.65 1.505-2.973 2.827-3.968 3.968-.995 1.14-1.735 2.184-2.22 3.13a15.363 15.363 0 0 0-1.129 2.84c-.267.946-.667 2.608-1.201 4.986-.922 5.048-3.81 7.572-8.663 7.572-2.524 0-4.647-.825-6.37-2.476-1.723-1.65-2.585-4.1-2.585-7.352 0-4.077.631-7.608 1.893-10.593 1.262-2.985 2.936-5.606 5.023-7.862 2.087-2.257 4.902-4.939 8.445-8.045 3.106-2.718 5.351-4.768 6.734-6.151a20.88 20.88 0 0 0 3.495-4.623c.946-1.699 1.42-3.543 1.42-5.533 0-3.883-1.445-7.159-4.332-9.828-2.888-2.67-6.613-4.004-11.175-4.004-5.339 0-9.27 1.347-11.794 4.04-2.524 2.694-4.66 6.661-6.406 11.903-1.65 5.484-4.78 8.227-9.392 8.227-2.717 0-5.01-.959-6.88-2.876-1.868-1.917-2.802-3.992-2.802-6.224zm35.527 79.79c-2.961 0-5.545-.959-7.754-2.876-2.208-1.917-3.312-4.598-3.312-8.044 0-3.058 1.068-5.63 3.203-7.717 2.136-2.087 4.756-3.13 7.863-3.13 3.057 0 5.63 1.043 7.716 3.13 2.087 2.087 3.13 4.659 3.13 7.717 0 3.397-1.091 6.066-3.275 8.008-2.184 1.941-4.708 2.912-7.571 2.912z" id="e"/></defs><g fill="none" fill-rule="evenodd"><path d="M759.001 384c0 207.105-167.895 375-375.001 375C176.894 759 9 591.105 9 384 9 176.893 176.894 9 384 9s375.001 167.893 375.001 375" fill="#EEE"/><g transform="translate(126 193)"><rect fill="#FFF" width="419.958" height="364" rx="20.79"/><use fill="#CCC" xlink:href="#a"/><path d="M20.79 0h378.378c11.482 0 20.79 9.308 20.79 20.79v190.33H0V20.79C0 9.308 9.308 0 20.79 0z"/><circle fill="#EEE" cx="340" cy="63" r="15"/><path d="M135.155 94.69L238.34 211H20L123.186 94.69a8 8 0 0 1 11.969 0z" fill="#EEE"/><g fill-rule="nonzero" fill="#EAEAEA"><path d="M339 32.5v10a2 2 0 1 0 4 0v-10a2 2 0 1 0-4 0zM358.969 41.511l-5.657 5.657a2 2 0 0 0 2.828 2.828l5.657-5.657a2 2 0 0 0-2.828-2.828z"/></g><path d="M361.989 82.469l-5.657-5.657a2 2 0 0 0-2.828 2.828l5.657 5.657a2 2 0 0 0 2.828-2.828z" fill-rule="nonzero" fill="#EAEAEA"/><g fill-rule="nonzero" fill="#EAEAEA"><path d="M342 94.5v-10a2 2 0 1 0-4 0v10a2 2 0 1 0 4 0zM321.031 85.489l5.657-5.657a2 2 0 0 0-2.828-2.828l-5.657 5.657a2 2 0 0 0 2.828 2.828z"/></g><g fill-rule="nonzero" fill="#EAEAEA"><path d="M309 65h10a2 2 0 1 0 0-4h-10a2 2 0 1 0 0 4zM361 65h10a2 2 0 1 0 0-4h-10a2 2 0 1 0 0 4zM317.511 45.031l5.657 5.657a2 2 0 0 0 2.828-2.828l-5.657-5.657a2 2 0 0 0-2.828 2.828z"/></g><path d="M255.723 130.316L344 211H158l88.277-80.684a7 7 0 0 1 9.446 0z" fill="#EEE"/><rect fill="#EEE" x="18.7" y="235.04" width="254.531" height="22.88" rx="3.119"/><rect fill="#EEE" x="18.7" y="280.8" width="171.419" height="22.88" rx="3.119"/></g><g transform="rotate(-36 793.903 -274.915)"><use fill="#CCC" xlink:href="#b"/><rect x="110.511" y="218.515" width="14.511" height="31.314" rx="7.255"/><use fill="#CCC" xlink:href="#c"/><rect x="102.575" y="234.172" width="30.382" height="104.622" rx="10"/><circle fill="#DDD" cx="113.682" cy="113.682" r="113.682"/><g><use fill="#FFF" xlink:href="#d"/><circle cx="114.425" cy="114.425" r="95.116"/></g></g><use fill="#CCC" xlink:href="#e"/><path d="M437 417.43c0-4.61 1.48-9.281 4.44-14.014 2.961-4.732 7.28-8.65 12.96-11.757 5.678-3.106 12.303-4.659 19.874-4.659 7.037 0 13.25 1.298 18.637 3.895 5.387 2.596 9.549 6.127 12.485 10.592 2.936 4.465 4.404 9.319 4.404 14.56 0 4.126-.837 7.741-2.511 10.848-1.675 3.106-3.665 5.787-5.97 8.044-2.305 2.257-6.443 6.055-12.412 11.393-1.65 1.505-2.973 2.827-3.968 3.968-.995 1.14-1.735 2.184-2.22 3.13a15.363 15.363 0 0 0-1.129 2.84c-.267.946-.667 2.608-1.201 4.986-.922 5.048-3.81 7.572-8.663 7.572-2.524 0-4.647-.825-6.37-2.476-1.723-1.65-2.585-4.1-2.585-7.352 0-4.077.631-7.608 1.893-10.593 1.262-2.985 2.936-5.606 5.023-7.862 2.087-2.257 4.902-4.939 8.445-8.045 3.106-2.718 5.351-4.768 6.734-6.151a20.88 20.88 0 0 0 3.495-4.623c.946-1.699 1.42-3.543 1.42-5.533 0-3.883-1.445-7.159-4.332-9.828-2.888-2.67-6.613-4.004-11.175-4.004-5.339 0-9.27 1.347-11.794 4.04-2.524 2.694-4.66 6.661-6.406 11.903-1.65 5.484-4.78 8.227-9.392 8.227-2.717 0-5.01-.959-6.88-2.876-1.868-1.917-2.802-3.992-2.802-6.224zm35.527 79.79c-2.961 0-5.545-.959-7.754-2.876-2.208-1.917-3.312-4.598-3.312-8.044 0-3.058 1.068-5.63 3.203-7.717 2.136-2.087 4.756-3.13 7.863-3.13 3.057 0 5.63 1.043 7.716 3.13 2.087 2.087 3.13 4.659 3.13 7.717 0 3.397-1.091 6.066-3.275 8.008-2.184 1.941-4.708 2.912-7.571 2.912z"/></g></svg>