<svg width="768" height="768" viewBox="0 0 768 768" xmlns="http://www.w3.org/2000/svg"><g fill="none" fill-rule="evenodd"><path d="M759 384c0 207.106-167.894 375-375 375S9 591.106 9 384 176.894 9 384 9s375 167.894 375 375" fill="#EEE"/><path d="M427.218 672.196c0 .876-.829 1.588-1.854 1.588h-84.436c-1.023 0-1.852-.712-1.852-1.588l-10.939-62.432c0-.875.83-1.585 1.853-1.585h105.637c1.023 0 1.853.71 1.853 1.585l-10.262 62.432z" fill="#CCC"/><path d="M351.865 591.996a4.287 4.287 0 0 0-.12-1.449L332.97 520.47H434.91l-18.801 70.17c-.122.455-.147.91-.123 1.357h-64.122zM489.927 117.95c-43.502 0-82.053 21.176-105.926 53.776-23.874-32.6-62.424-53.776-105.927-53.776-72.466 0-131.212 58.746-131.212 131.21 0 7.362.614 14.583 1.78 21.613l-.01.086s.164 1.295.72 3.83a130.274 130.274 0 0 0 11.48 33.433c17.217 39.651 58.153 109.535 154.364 202.83a90.232 90.232 0 0 0 8.818 8.973c-.01.407.018.82.129 1.234l18.98 70.837h-25.291c-1.102 0-1.997 1.067-1.997 2.383v11.638c0 1.314.895 2.382 1.997 2.382h129.952c1.103 0 1.996-1.068 1.996-2.382V594.38c0-1.316-.893-2.383-1.996-2.383h-23.027l18.957-70.748c.107-.398.135-.797.13-1.19a91.26 91.26 0 0 0 9.199-9.383c95.522-92.688 136.467-162.242 153.818-201.954 9.124-17.875 14.277-38.114 14.277-59.56 0-72.465-58.745-131.21-131.211-131.21z" fill="#D7D7D7"/><path d="M510.047 167.496c.159.068.318.137.477.208 2.224.991-2.415-1.174-.53-.256a89.194 89.194 0 0 1 5.48 2.938 110.464 110.464 0 0 1 7.908 5.05 116.543 116.543 0 0 1 7.86 5.994c-2.348-1.943-.356-.296.136.13 3.555 3.076 6.9 6.385 10.055 9.871a111.686 111.686 0 0 1 7.09 8.713c.28.384 1.575 2.23.132.168.507.728 1 1.462 1.489 2.198 3.239 4.877 6.027 10.042 8.424 15.378a107.505 107.505 0 0 1 1.73 4.123c.13.325 1.017 2.712.229.565.266.724.516 1.455.767 2.184 1.122 3.274 2.05 6.61 2.858 9.971.927 3.853 1.605 7.762 2.132 11.686.118.877.216 1.755.315 2.634.113 1.126.123 1.184.03.174a128.582 128.582 0 0 1 .44 8.324c.126 5.111 3.612 9.545 8.98 9.77 4.852.205 9.894-3.86 9.77-8.978-.677-27.677-9.5-53.852-26.984-75.422-9.925-12.248-22.68-22.852-36.642-30.216-2.09-1.102-4.218-2.166-6.4-3.073-4.724-1.969-10.343 1.5-11.805 6.06-1.664 5.178 1.343 9.843 6.059 11.806M583.427 289.483c0 5.538-4.49 10.024-10.024 10.024-5.535 0-10.023-4.486-10.023-10.024 0-5.535 4.488-10.023 10.023-10.023 5.535 0 10.024 4.488 10.024 10.023M400.537 359.458c0-2.207.017-11.064.394-13.164v2.548l46.017-48.806h-34.474l-47.512 47.398V244.493h-27.586v173.998h27.586v-35.966l13.832-13.933c5.412 27.101 29.329 50.074 58.026 50.074 4.316 0 8.522-.471 12.573-1.35v-23.615a35.452 35.452 0 0 1-12.446 2.165c-17.62-.128-36.41-16.301-36.41-36.408" fill="#FFF"/></g></svg>