<svg width="40" height="25" viewBox="0 0 40 25" xmlns="http://www.w3.org/2000/svg"><g fill="none" fill-rule="evenodd"><path fill="#FAFAFA" d="M0 0h40v25H0z"/><g fill-rule="nonzero"><path d="M33 8v.102h.237v.653h.084v-.653h.237V8H33zm.656 0v.755h.098V8.13l.209.624h.084l.195-.61v.61h.098V8h-.126l-.21.639L33.797 8h-.14z" fill="#000"/><path d="M28.408 8l-.363.029s-.377.087-.377.261v.58l-1.633.059v-.32h-.754s-.754.059-.754.29v2.12h3.14v1.45h-2.163v.581h2.164v3.324l1.605-.175V13.05h2.303v-.58h-2.303v-1.451h2.708v-.29h.07s.21 0 .335-.349l.125-.958s-.014-.696-.725-.696l-2.513.087V8h-.865zm2.484 1.335s.224-.014.238.232l-.112.886h-4.983v-.958l1.633-.044v.015l1.605-.073 1.62-.058z" fill="#003F96"/><path d="M18.651 12.47l.516.624.6.551s.168.174.336 0l.586-.551.516-.624s.182-.16 0-.363l-.516-.61-.586-.536s-.168-.175-.335 0l-.587.536-.53.61s-.154.203 0 .363M32.05 14.385s.098-.13 0-.275l-.404-.465-.447-.406s-.125-.13-.265 0l-.447.406-.39.465s-.112.145 0 .275l.39.465.447.406s.14.145.265 0l.447-.406.405-.465" fill="#EC6C00"/><path d="M8.113 11.773H12.9s-.14.566-.488 1.277c0 0-.6 1.22-1.522 2.134 0 0-1.73 1.683-2.847 1.683 0 0-.824 0-1.354-.32 0 0-.656-.42-.656-1.29 0 0 0-1.147 1.689-1.481 0 0-1.089-.073-1.661.522 0 0-.53.523-.53 1.437 0 0 0 .87.767 1.393 0 0 .684.48 1.661.465l.223.014s1.899-.101 3.657-1.625c0 0 1.508-1.306 2.262-3.178 0 0 .237-.58.363-1.161l.083-.45v.014h-2.582V9.93h3.252v-.566h-3.252v-1.32h-.851l-.363.029s-.377.087-.377.26v1.031h-3.14v.566h3.14v1.277H8.113v.566M18.846 8l-.027.276-.182.682s-.195.464-.488.827v6.545l-1.606-.203V10.93s-.6.32-1.116.523l-.21-.348s.545-.392 1.09-.944c0 0 1.074-1.117 1.074-1.872 0 0 0-.174.377-.261L18.12 8h.725" fill="#003F96"/><path d="M18.4 10.51h3.015v6.038l1.605.029V10.51h.837v-.58h-.837V8h-.866l-.362.029s-.377.087-.377.261v1.64H18.4v.58" fill="#003F96"/><path d="M11.1 14.023s-2.038-.93-3.294-.973c0 0-1.033-.058-1.885.566 0 0-.893.653-.921 1.626 0 0 0 1.132.865 1.77 0 0 .796.595 2.08.595h.126l-.21-.014s-.935 0-1.59-.48c0 0-.727-.536-.727-1.421 0 0 0-.958.642-1.452 0 0 .545-.406 1.424-.42l1.242.145.964.391 2.303 1.22s1.577.856 3.084 1.378c0 0 5.249 1.814 16.987.624l.628-.13s.224-.102.405-.407c0 0 .154-.247 1.2-1.219 0 0 .754-.711.503-.943l-.363.058s-3.838.9-9.687 1.146c0 0-6.574.276-9.826-.696 0 0-2.247-.668-3.95-1.364" fill="#EC6C00"/></g></g></svg>