<svg width="40" height="25" viewBox="0 0 40 25" xmlns="http://www.w3.org/2000/svg"><defs><radialGradient cx="17.541%" cy="17.466%" fx="17.541%" fy="17.466%" r="93.287%" gradientTransform="matrix(.625 0 0 1 .066 0)" id="a"><stop stop-color="#9DD5F6" offset="0%"/><stop stop-color="#98D3F5" offset="7.11%"/><stop stop-color="#89CEF3" offset="15.75%"/><stop stop-color="#70C6EF" offset="25.16%"/><stop stop-color="#4EBBEA" offset="35.14%"/><stop stop-color="#23ADE3" offset="45.46%"/><stop stop-color="#0DA6E0" offset="50%"/><stop stop-color="#2E77BC" offset="100%"/></radialGradient></defs><g fill="none" fill-rule="evenodd"><path fill="url(#a)" d="M0 0h40v25H0z"/><path d="M3.612 8.945L2.84 7.108l-.767 1.837h1.538zm16.98-.731c-.155.091-.338.095-.557.095h-1.368V7.285h1.386c.197 0 .401.008.534.083.146.067.237.21.237.407 0 .202-.086.364-.232.439zm9.76.731l-.78-1.837-.775 1.837h1.554zm-18.193 1.99h-1.155L11 7.324l-1.633 3.61H8.38L6.74 7.32v3.613h-2.29l-.433-1.028H1.673l-.437 1.028H.013l2.017-4.61h1.673l1.915 4.365V6.325h1.838L8.93 9.452l1.354-3.127h1.875v4.61zm4.601 0h-3.762v-4.61h3.762v.96h-2.636v.83h2.573v.945h-2.573v.921h2.636v.953zm5.304-3.369c0 .735-.5 1.115-.793 1.229.246.092.457.254.557.388.159.23.186.434.186.846v.905H20.88l-.005-.58c0-.278.027-.677-.178-.899-.164-.162-.415-.197-.82-.197h-1.21v1.676h-1.125v-4.61h2.59c.575 0 1 .016 1.364.221.356.206.57.507.57 1.021zm1.803 3.368h-1.15v-4.61h1.15v4.61zm13.33 0h-1.596l-2.134-3.46v3.46h-2.294l-.438-1.028h-2.34l-.424 1.028h-1.318c-.548 0-1.24-.118-1.633-.51-.396-.39-.602-.921-.602-1.76 0-.683.123-1.308.607-1.802.364-.368.935-.537 1.71-.537h1.09v.987h-1.067c-.41 0-.643.06-.866.274-.192.194-.324.56-.324 1.044 0 .494.1.85.31 1.082.173.183.488.238.785.238h.505l1.588-3.625h1.687l1.907 4.36v-4.36h1.714l1.98 3.21v-3.21h1.153v4.61zM0 11.84h1.924l.434-1.024h.971l.433 1.024h3.786v-.783l.338.786H9.85l.338-.798v.795h9.409l-.005-1.68h.182c.128.003.165.015.165.22v1.46h4.866v-.391c.393.205 1.003.39 1.806.39h2.048l.438-1.023h.97l.43 1.024h3.944v-.973l.598.973H38.2V5.41h-3.129v.76l-.438-.76h-3.21v.76l-.402-.76h-4.337c-.725 0-1.364.1-1.879.376v-.375h-2.992v.375c-.328-.285-.775-.375-1.272-.375H9.609l-.733 1.66-.754-1.66H4.68v.759L4.3 5.41H1.364L0 8.468v3.373zM40 15.24h-2.053c-.204 0-.34.008-.455.083-.12.075-.165.186-.165.332 0 .174.1.292.246.344.12.04.247.052.434.052l.61.016c.617.015 1.028.118 1.279.37.045.036.073.076.104.115V15.24zm0 3.04c-.274.391-.807.59-1.528.59h-2.175v-.989h2.166c.215 0 .365-.028.456-.114a.401.401 0 0 0 .133-.3.375.375 0 0 0-.138-.306c-.081-.07-.2-.102-.397-.102-1.057-.035-2.376.032-2.376-1.427 0-.669.434-1.373 1.616-1.373H40v-.917h-2.084c-.63 0-1.086.147-1.41.376v-.376h-3.083c-.493 0-1.071.12-1.345.376v-.376h-5.505v.376c-.438-.31-1.178-.376-1.519-.376h-3.631v.376c-.347-.328-1.117-.376-1.587-.376h-4.064l-.93.984-.871-.984H7.9v6.433h5.956l.959-1 .902 1 3.672.004v-1.514h.361c.487.007 1.062-.012 1.569-.226v1.736h3.028v-1.677h.146c.187 0 .205.008.205.19v1.487h9.2c.584 0 1.194-.146 1.532-.412v.412h2.919c.607 0 1.2-.083 1.651-.297V18.28zm-4.492-1.842c.219.222.336.502.336.977 0 .992-.633 1.455-1.769 1.455h-2.193v-.989h2.185c.213 0 .365-.028.46-.114a.405.405 0 0 0 .133-.3.392.392 0 0 0-.138-.306c-.086-.07-.205-.102-.4-.102-1.054-.035-2.373.032-2.373-1.427 0-.669.43-1.373 1.61-1.373h2.258v.981H33.55c-.205 0-.338.008-.451.084-.124.074-.17.185-.17.331 0 .174.105.293.247.344.119.04.246.052.438.052l.607.016c.61.015 1.03.118 1.286.37zm-10.162-.285c-.151.088-.337.095-.557.095h-1.368v-1.035h1.387c.2 0 .401.004.538.083.145.075.233.217.233.415a.494.494 0 0 1-.233.442zm.68.574c.25.09.455.253.551.387.16.225.182.435.187.842v.914h-1.13v-.577c0-.278.027-.688-.183-.903-.164-.165-.415-.204-.826-.204h-1.204v1.684H22.29v-4.611h2.6c.57 0 .985.025 1.355.217.355.21.579.498.579 1.024 0 .736-.502 1.112-.798 1.227zm1.422-2.468h3.76v.953H28.57v.839h2.573v.94H28.57v.918l2.637.004v.957h-3.759v-4.611zm-7.598 2.128h-1.455v-1.174h1.468c.407 0 .689.162.689.565 0 .399-.27.609-.702.609zm-2.577 2.063l-1.73-1.878 1.73-1.818v3.696zm-4.465-.541h-2.77v-.918h2.473v-.94H10.04v-.839h2.823l1.232 1.344-1.286 1.353zm8.953-2.131c0 1.28-.977 1.545-1.961 1.545h-1.405v1.547h-2.19l-1.386-1.527-1.441 1.527H8.917v-4.611h4.53l1.385 1.511 1.433-1.511h3.598c.894 0 1.898.242 1.898 1.519z" fill="#FFF" fill-rule="nonzero"/></g></svg>