<svg width="40" height="25" viewBox="0 0 40 25" xmlns="http://www.w3.org/2000/svg"><defs><radialGradient cx="50.001%" cy="49.999%" fx="50.001%" fy="49.999%" r="49.443%" gradientTransform="matrix(.9372 0 0 1 .031 0)" id="a"><stop stop-color="#FFF2E8" offset=".56%"/><stop stop-color="#FEEDDF" offset="9.61%"/><stop stop-color="#FDE1C7" offset="24.38%"/><stop stop-color="#FACD9F" offset="43.03%"/><stop stop-color="#F6B168" offset="64.84%"/><stop stop-color="#F08E22" offset="89.01%"/><stop stop-color="#EE7D00" offset="100%"/></radialGradient></defs><g fill="none" fill-rule="evenodd"><path fill="#FFF" d="M0 0h40v25H0z"/><path d="M40 23.212V15s-10.595 6.907-30 10h30v-1.788z" fill="#EF7D00" fill-rule="nonzero"/><g fill-rule="nonzero"><path d="M18.308.09c-1.62 0-2.934 1.212-2.934 2.709 0 1.591 1.257 2.78 2.934 2.78 1.634 0 2.925-1.205 2.925-2.749 0-1.535-1.282-2.74-2.925-2.74z" fill="url(#a)" transform="translate(3 7)"/><path d="M4.655 7.188H3.078v5.273h1.569c.832 0 1.434-.19 1.962-.609a2.61 2.61 0 0 0 .998-2.025c0-1.557-1.213-2.64-2.952-2.64zm1.254 3.96c-.34.293-.776.42-1.47.42h-.288V8.081h.289c.693 0 1.113.118 1.469.427.371.316.592.806.592 1.311 0 .507-.22 1.014-.592 1.33zm2.193-3.96h1.072v5.273H8.102zm3.696 2.022c-.644-.228-.834-.38-.834-.663 0-.332.338-.585.8-.585.322 0 .586.127.867.426l.56-.702a2.464 2.464 0 0 0-1.617-.586c-.972 0-1.715.649-1.715 1.51 0 .728.346 1.099 1.353 1.448.42.141.635.236.742.3.215.135.322.324.322.545 0 .428-.355.743-.834.743-.511 0-.923-.244-1.17-.703l-.693.641c.494.695 1.088 1.004 1.905 1.004 1.114 0 1.897-.712 1.897-1.732 0-.838-.362-1.218-1.583-1.645zm1.921.617c0 1.551 1.27 2.753 2.904 2.753.462 0 .858-.088 1.345-.308v-1.21c-.43.41-.81.577-1.296.577-1.08 0-1.848-.752-1.848-1.82 0-1.011.792-1.81 1.799-1.81.51 0 .899.174 1.345.593v-1.21c-.47-.229-.859-.323-1.32-.323-1.626 0-2.929 1.226-2.929 2.758zm12.941.903l-1.468-3.542h-1.171l2.335 5.408h.577l2.376-5.408h-1.163zm3.136 1.73h3.044v-.892h-1.971v-1.424h1.895v-.893H30.87v-1.17h1.97v-.893h-3.043zm7.29-3.716c0-.988-.708-1.556-1.946-1.556h-1.592v5.273h1.073v-2.12h.14l1.485 2.12h1.32l-1.734-2.221c.81-.159 1.254-.689 1.254-1.496zm-2.153.87h-.312V8.018h.33c.67 0 1.032.27 1.032.783 0 .53-.363.815-1.05.815z" fill="#05171D"/><path d="M37.971 7.6c0-.105-.088-.162-.251-.162h-.215v.53h.158v-.206l.187.206h.198l-.222-.22c.094-.019.145-.074.145-.147zm-.278.073h-.03v-.138h.031c.079 0 .119.023.119.068 0 .046-.042.07-.12.07z" fill="#1D1D1B"/><path d="M37.684 7.263a.413.413 0 0 0-.423.406c0 .225.19.406.423.406.23 0 .418-.183.418-.406a.414.414 0 0 0-.418-.406zm0 .74a.335.335 0 0 1-.34-.333c0-.185.15-.333.34-.333.182 0 .332.15.332.333 0 .182-.15.332-.333.332zm-24.99 5.844l1.435 1.441v-1.366h.205v1.843l-1.435-1.438v1.36h-.205z" fill="#1D1D1B"/><path d="M12.674 13.847v1.858h.244v-1.333l1.434 1.44v-1.909h-.243v1.34c-.063-.065-1.435-1.442-1.435-1.442v.046zm.039.046l1.436 1.441V13.94h.166v1.78l-1.435-1.44v1.388h-.167v-1.775zm2.615.029h.954v.182h-.75v.525h.728v.182h-.728v.692h.75v.183h-.954z" fill="#1D1D1B"/><path d="M16.282 13.903h-.974v1.802h.993v-.22h-.749v-.656h.727v-.218h-.727v-.487h.75v-.22h-.02zm-.02.037v.146h-.749v.561h.727v.146h-.727v.729h.75v.146h-.916V13.94h.916zm1.468 1.746h-.206v-1.582h-.443v-.182h1.098v.182h-.45z" fill="#1D1D1B"/><path d="M18.179 13.903h-1.12v.22h.446v1.582h.243v-1.581h.45v-.22h-.02zm-.02.037v.146h-.449v1.582h-.167v-1.582H17.1v-.146h1.06zm1.391 1.304l.596-1.414.595 1.414.483-1.322h.223l-.706 1.855-.595-1.42-.596 1.42-.705-1.855h.222z" fill="#1D1D1B"/><path d="M20.128 13.824l-.577 1.368-.471-1.288h-.263l.733 1.926.596-1.424.596 1.424.732-1.926h-.263l-.471 1.288-.594-1.41-.018.042zm-.56 1.427s.544-1.292.578-1.37l.596 1.415.496-1.356h.181l-.679 1.786-.594-1.418-.595 1.418c-.032-.085-.66-1.74-.679-1.786h.181l.496 1.356.019-.045zm4.53-.445c0 .508-.436.91-.96.91-.525 0-.959-.402-.959-.91 0-.505.434-.914.96-.914.523 0 .959.409.959.914zm-1.714-.002c0 .397.337.73.754.73a.745.745 0 0 0 .754-.73.74.74 0 0 0-.754-.73.742.742 0 0 0-.754.73z" fill="#1D1D1B"/><path d="M22.16 14.806c0 .512.439.929.978.929.54 0 .979-.417.979-.929 0-.515-.44-.933-.979-.933-.539 0-.978.418-.978.933zm.038 0c0-.494.422-.896.94-.896s.941.402.941.896c0 .492-.423.892-.94.892-.52 0-.941-.4-.941-.892z" fill="#1D1D1B"/><path d="M22.364 14.804c0 .414.348.748.774.748a.76.76 0 0 0 .773-.748.761.761 0 0 0-.773-.748.763.763 0 0 0-.774.748zm.04 0c0-.392.329-.712.734-.712.406 0 .735.32.735.712a.724.724 0 0 1-.735.712.725.725 0 0 1-.735-.712zm2.787.882h-.204v-1.764h.266c.348 0 .672.09.672.487 0 .271-.177.463-.46.486l.585.791h-.252l-.555-.775h-.052v.775zm0-.948h.064c.231 0 .466-.041.466-.315 0-.29-.222-.319-.468-.319h-.062v.634z" fill="#1D1D1B"/><path d="M24.987 13.903h-.02v1.802h.244v-.775h.031c0 .013.541.767.541.767l.267.008h.038s-.562-.758-.591-.799c.271-.036.448-.226.448-.497 0-.34-.226-.506-.692-.506h-.266zm.266.037c.445 0 .654.149.654.469 0 .262-.174.446-.444.468l-.034.003.585.788h-.216c0-.014-.54-.767-.54-.767l-.067-.008h-.02v.775h-.166v-1.729h.248z" fill="#1D1D1B"/><path d="M25.191 14.086h-.02v.67h.084c.226 0 .485-.038.485-.333 0-.312-.252-.337-.487-.337h-.062zm.062.038c.236 0 .448.022.448.299 0 .261-.225.296-.446.296h-.044v-.595h.042zm2.655-.202h.276l-.864.822.893.942h-.283l-.755-.81-.051.049v.761h-.205v-1.764h.205v.755z" fill="#1D1D1B"/><path d="M28.184 13.903h-.283l-.757.73v-.73h-.243v1.802h.243v-.777a.229.229 0 0 0 .03-.025l.742.796.297.006h.044s-.886-.936-.912-.96l.885-.841h-.046zm-.047.037c-.061.06-.844.803-.844.803l.877.925h-.24c0-.01-.74-.804-.74-.804l-.014-.015-.065.063-.006.756h-.166V13.94h.166v.783l.81-.783h.222z" fill="#1D1D1B"/></g></g></svg>