<svg width="221" height="18" viewBox="0 0 221 18" xmlns="http://www.w3.org/2000/svg"><g fill="none" fill-rule="evenodd"><path d="M106.36 8.86c0-2.434 1.007-4.353 2.375-5.732l.911.431c-1.307 1.367-2.206 3.095-2.206 5.301 0 2.208.899 3.934 2.206 5.302l-.911.431c-1.368-1.379-2.375-3.297-2.375-5.732M112.699 10.323h2.758V7.924h-2.758v2.4zm0 1.056v.935h-1.08V6.87h4.941v4.51h-3.861zm8.395-6.08h-1.427v7.58c0 .718-.18 1.09-.684 1.258-.516.204-1.355.216-2.555.216-.06-.323-.288-.875-.467-1.199.911.048 1.906.036 2.195.036.263-.012.347-.084.347-.336V5.298h-8.059V4.183h10.65v1.115zM128.405 9.748h2.902V7.973h-2.902v1.775zm0-2.819h2.902V5.24h-2.902v1.69zm-3.719 0h2.603V5.24h-2.603v1.69zm2.603 2.82V7.972h-2.603v.48c0 .407-.011.851-.048 1.295h2.651zm5.133 3.213c0 .648-.156.984-.587 1.152-.444.18-1.14.203-2.243.191-.048-.299-.228-.79-.372-1.079.768.036 1.559.024 1.787.024.216 0 .3-.072.3-.3v-2.147h-2.902v3.43h-1.116v-3.43h-2.758c-.192 1.32-.624 2.663-1.499 3.634-.168-.216-.625-.599-.876-.732 1.307-1.45 1.427-3.573 1.427-5.264v-4.27h8.839v8.791zM135.196 3.913h1.484v9.164h5.472v1.401h-6.956zM143.998 14.478h1.484V3.913h-1.484zM149.932 6.336v8.142h-1.5V3.913h1.615l5.851 8.192V3.913h1.484v10.565h-1.616zM160.331 3.913h6.708v1.401h-5.224v3.164h4.565V9.88h-4.565v3.198h5.224v1.401h-6.708zM176.014 12.818h2.663V10h-2.663v2.818zm1.727-5.889V8.98h1.992v5.325h-1.056v-.467h-2.663v.515h-1.019V8.98h1.667V3.367h1.079v2.531h2.447V6.93h-2.447zm-3.873 4.498c.419.552.827 1.307.995 1.811l-.732.312c-.155-.516-.551-1.296-.935-1.859l.672-.264zm-1.44-4.678c.18-.49.396-1.307.492-1.835l.612.228c-.228.6-.456 1.331-.66 1.775l-.444-.168zm-.095.541h1.223V4.531h-1.223v2.76zm.395 4.401c.264.6.504 1.391.588 1.92l-.72.167c-.06-.528-.299-1.332-.551-1.956l.683-.13zm-1.139.108c.18.647.3 1.5.3 2.063l-.744.095c0-.563-.108-1.415-.252-2.087l.696-.07zm-.54-6.849c.192.552.36 1.296.384 1.751l-.54.168a7.479 7.479 0 0 0-.347-1.787l.503-.132zm-.6 2.34h1.164V4.53h-1.164v2.76zm-1.163 3.19c.612-.025 1.367-.049 2.195-.085v-.779h-1.919v-.864h1.919V8.07h-1.871V3.751h4.821V8.07h-1.955v.683h1.991v.864h-1.991v.731c.72-.036 1.464-.07 2.195-.108l-.036.888c-1.907.132-3.898.228-5.301.312l-.048-.96zm-.216 3.49c.456-.492.696-1.344.804-2.135l.767.203c-.132.876-.336 1.787-.839 2.327l-.732-.396zM188.938 6.57l-.036.12c.18 1.199.432 2.327.791 3.322.372-.995.612-2.135.768-3.442h-1.523zm-4.114 2.639h1.319v-.648h-1.319v.648zm.001-2.579h1.043v-.588h-1.043v.588zm-.001-1.295h1.043v-.576h-1.043v.576zm1.655 5.985a3.515 3.515 0 0 1-.815 1.486c.467.228.887.456 1.211.672a5.828 5.828 0 0 0 2.219-2.195c-.348-.827-.624-1.775-.84-2.794-.18.384-.372.744-.576 1.055a6.06 6.06 0 0 0-.563-.576v.96h-2.663c-.096.192-.203.408-.324.612 1.14-.012 2.375-.024 3.586-.048l-.036.803-1.199.025zm-3.094.527c.468.168.935.36 1.391.552.3-.288.54-.636.708-1.056l-1.823.036-.276.468zm-.503-5.217h.983v-.588h-.983v.588zm-.001-1.295h.983v-.576h-.983v.576zm-.264 3.874h1.248v-.648h-1.248v.648zm8.899-2.639c-.24 1.859-.623 3.43-1.259 4.725.504.948 1.151 1.715 1.991 2.207-.252.192-.588.6-.756.876-.755-.504-1.367-1.188-1.859-2.015a7.44 7.44 0 0 1-2.146 2.039 4.226 4.226 0 0 0-.6-.876l-.672.672a10.968 10.968 0 0 0-1.307-.78c-.756.468-1.751.768-3.034.984a2.31 2.31 0 0 0-.408-.864c1.007-.108 1.823-.288 2.458-.588-.311-.131-.635-.276-.959-.396l-.156.252-.912-.239c.217-.324.468-.732.708-1.176l-1.391.024-.036-.851c.552 0 1.199 0 1.895-.012.12-.216.228-.42.324-.624h-1.715V7.841h2.183v-.467h-1.907V6.102h-.792v-.815h.792V4.028h1.907v-.672h.959v.672h2.027v1.259h.816v.815h-.816v1.272h-2.027v.467h2.291v.492c.707-1.284 1.127-3.118 1.379-4.99l1.068.168a21.56 21.56 0 0 1-.373 2.027h2.987V6.57h-.66zM204.176 8.417h-1.859v5.937h-1.103V8.417h-2.075c-.024 1.81-.288 4.246-1.847 5.889-.144-.252-.552-.648-.816-.78 1.404-1.546 1.548-3.706 1.548-5.41V4.256l1.031.157c1.451-.252 2.962-.6 3.898-.96l.839.887c-1.283.444-3.07.804-4.653 1.008V7.35h5.037v1.067zm-8.239 1.463v3.226c0 .576-.12.876-.48 1.056-.336.156-.864.192-1.679.18a3.817 3.817 0 0 0-.312-1.02c.504.025.996.025 1.151.012.156 0 .228-.047.228-.228v-2.914l-1.523.432-.276-1.091a38.098 38.098 0 0 0 1.799-.444V6.714h-1.619V5.683h1.619V3.356h1.092v2.327h1.283v1.03h-1.283V8.79c.431-.12.875-.24 1.307-.372l.144 1.043-1.451.42zM212.806 7.338a59.982 59.982 0 0 1-.096-2.208c-.648.109-1.307.192-1.943.264v1.944h2.039zm-4.078 5.648h4.642v1.007h-4.642v-1.007zm5.218-4.618c.215 2.543.635 4.306 1.211 4.342.192.012.324-.576.396-1.583.18.204.623.48.803.576-.252 1.86-.731 2.338-1.211 2.338-1.367-.036-1.991-2.279-2.267-5.673h-2.111v2.663c.648-.107 1.344-.216 2.027-.336l.084.996c-1.415.252-2.914.515-4.042.72l-.239-1.056c.323-.036.683-.096 1.079-.155V4.255l.803.24c1.583-.204 3.286-.528 4.342-.864l.792.876c-.54.168-1.176.312-1.835.444.012.828.048 1.63.084 2.387h2.134v1.03h-2.05zm-6.009 1.511v3.228c0 .575-.12.875-.48 1.055-.336.155-.863.191-1.679.18a3.817 3.817 0 0 0-.312-1.02c.504.025.996.025 1.152.013.155 0 .228-.049.228-.229v-2.915l-1.524.432-.276-1.09a38.414 38.414 0 0 0 1.8-.444V6.713h-1.62v-1.03h1.62V3.356h1.091v2.327h1.283v1.03h-1.283V8.79c.432-.12.875-.24 1.307-.373l.144 1.044-1.451.42zM220.068 8.86c0 2.436-1.007 4.354-2.375 5.734l-.911-.432c1.307-1.368 2.207-3.095 2.207-5.302 0-2.206-.9-3.933-2.207-5.3l.911-.433c1.368 1.38 2.375 3.299 2.375 5.734" fill="#666"/><path d="M54.024 0L8.976.001C4.027.014 0 4.051 0 9.001 0 13.95 4.027 17.987 8.976 18h45.048c4.963 0 8.999-4.038 8.999-8.999C63.023 4.038 58.987 0 54.024 0" fill="#00C43E"/><path d="M15.886 13.14h1.281a.296.296 0 0 0 .296-.294V4.882a.295.295 0 0 0-.296-.294h-1.28a.295.295 0 0 0-.297.294v7.964c0 .161.133.294.296.294M19.17 13.14h1.28a.296.296 0 0 0 .297-.294v-5.01l3.812 5.18a.306.306 0 0 0 .075.072l.059.031.029.01a.3.3 0 0 0 .08.011h1.233a.295.295 0 0 0 .295-.294V4.882a.294.294 0 0 0-.295-.294h-1.283a.294.294 0 0 0-.295.294v4.963L20.65 4.721a.297.297 0 0 0-.044-.052c-.01-.01-.017-.015-.022-.019a.218.218 0 0 0-.022-.015l-.08-.036-.055-.01H19.17a.295.295 0 0 0-.296.293v7.964c0 .161.133.294.296.294M8.957 13.14h5.121a.296.296 0 0 0 .295-.296v-1.28a.296.296 0 0 0-.295-.298h-3.543V4.882a.295.295 0 0 0-.296-.294H8.957a.294.294 0 0 0-.295.294v7.962c0 .078.03.15.082.205a.3.3 0 0 0 .213.091M27.834 13.06c.053.05.125.08.201.08h5.122a.295.295 0 0 0 .295-.296v-1.281a.295.295 0 0 0-.295-.296h-3.543V9.803h3.543a.297.297 0 0 0 .295-.297V8.222a.295.295 0 0 0-.295-.294h-3.543V6.462h3.543a.296.296 0 0 0 .295-.296V4.881a.296.296 0 0 0-.295-.294h-5.12a.296.296 0 0 0-.297.295v7.962c0 .076.029.148.084.204l.01.011zM45.59 10.32h1.901v1.248h-1.876c-.302 0-.58-.204-.637-.499a.626.626 0 0 1 .612-.749m0 2.821h3.123a.35.35 0 0 0 .35-.351V9.008c0-1.186-.508-1.831-.935-2.162-1.058-.82-2.647-.626-3.87-.343a.35.35 0 0 0-.259.428l.217.846a.35.35 0 0 0 .418.254c1.56-.354 2.236-.171 2.53.058.07.053.257.203.311.659h-1.808c-1.168 0-2.19.88-2.268 2.045a2.199 2.199 0 0 0 2.191 2.348M51.813 12.1l-1.042 2.483a.223.223 0 0 0 .205.309h1.44a.285.285 0 0 0 .264-.176l3.387-8.07a.223.223 0 0 0-.205-.308h-1.398a.35.35 0 0 0-.323.215l-1.322 3.15-1.261-3.145a.351.351 0 0 0-.325-.22h-1.305a.287.287 0 0 0-.266.394l2.15 5.368zM38.565 6.46h1.192a1.354 1.354 0 0 1 0 2.708h-1.192V6.46zm-1.577 6.68h1.281a.297.297 0 0 0 .296-.295v-1.803h1.192a3.228 3.228 0 0 0 0-6.454h-2.769a.295.295 0 0 0-.296.295v7.962c0 .163.132.296.296.296z" fill="#FFF"/><path d="M75.94 13.017a.296.296 0 0 1-.415 0l-7.66-7.66a.293.293 0 0 1 0-.415l.25-.25a.296.296 0 0 1 .416 0l7.66 7.66a.296.296 0 0 1 0 .415l-.25.25z" fill="#999"/><path d="M68.53 13.017a.296.296 0 0 1-.415 0l-.25-.25a.293.293 0 0 1 0-.415l7.66-7.66a.296.296 0 0 1 .416 0l.249.25a.295.295 0 0 1 0 .415l-7.66 7.66z" fill="#999"/><path d="M92.067 7.805a1.023 1.023 0 0 0-.009-.077l-.009-.059a1.563 1.563 0 0 0-.016-.073c-.004-.01-.006-.022-.009-.033a1.208 1.208 0 0 0-1.162-.883h-1.469c-.09 0-.128.04-.128.128v2.167c0 .09.038.128.128.128h1.47v.001h.018a1.72 1.72 0 0 0 .124-.009l.04-.007.081-.014a.823.823 0 0 0 .047-.013l.07-.019.047-.019a1.215 1.215 0 0 0 .111-.048l.058-.03a.68.68 0 0 0 .045-.029.717.717 0 0 0 .097-.068.973.973 0 0 0 .05-.04l.04-.037.045-.044.036-.04.041-.05.033-.043a.97.97 0 0 0 .035-.053c.01-.015.02-.03.028-.047l.031-.055a.765.765 0 0 1 .024-.05l.024-.06c.006-.016.013-.034.018-.052a.49.49 0 0 0 .02-.062l.014-.055.011-.064.01-.057.005-.066.003-.058.001-.023-.002-.046v-.04" fill="#00C300"/><path d="M91.02 10.954l-1.626-.005c-.09 0-.129.038-.129.128v2.354a.376.376 0 0 1-.374.377h-1.386a.376.376 0 0 1-.375-.377v-8.22c0-.209.168-.377.375-.377h3.557l.001.001a3.055 3.055 0 0 1 3.008 3.06c0 1.69-1.366 3.06-3.052 3.06M89.974.014c-4.952 0-8.965 4.026-8.965 8.991 0 4.966 4.013 8.991 8.965 8.991 4.951 0 8.966-4.025 8.966-8.99 0-4.966-4.015-8.992-8.966-8.992" fill="#00C300"/></g></svg>