<svg width="40" height="25" viewBox="0 0 40 25" xmlns="http://www.w3.org/2000/svg"><g fill="none" fill-rule="evenodd"><path fill="#FAFAFA" d="M0 0h40v25H0z"/><g fill-rule="nonzero"><path d="M8.428 1h9.467c1.322 0 2.144 1.043 1.835 2.327l-4.407 18.326c-.311 1.28-1.634 2.324-2.957 2.324H2.9c-1.32 0-2.144-1.044-1.835-2.324l4.41-18.326C5.781 2.043 7.104 1 8.427 1" fill="#E21836"/><path d="M17.107 1h10.887c1.322 0 .726 1.043.415 2.327l-4.407 18.326c-.31 1.28-.213 2.324-1.537 2.324H11.578c-1.324 0-2.143-1.044-1.832-2.324l4.407-18.326C14.466 2.043 15.785 1 17.107 1" fill="#00447C"/><path d="M27.563 1h9.467c1.323 0 2.145 1.043 1.834 2.327l-4.407 18.326c-.31 1.28-1.635 2.324-2.958 2.324h-9.463c-1.324 0-2.145-1.044-1.835-2.324L24.61 3.327C24.917 2.043 26.239 1 27.563 1" fill="#007B84"/><path d="M10.9 6.873c-.973.01-1.26 0-1.352-.02l-.694 3.099c-.142.594-.245 1.017-.594 1.29a1.08 1.08 0 0 1-.7.236c-.43 0-.682-.208-.725-.602l-.008-.135.132-.8s.69-2.674.813-3.028a.25.25 0 0 0 .01-.04c-1.342.011-1.58 0-1.597-.02a4.518 4.518 0 0 0-.042.194L5.44 10.06l-.06.256-.117.836c0 .248.05.45.15.622.32.542 1.236.624 1.753.624.667 0 1.293-.137 1.716-.388.733-.42.925-1.076 1.097-1.66l.079-.299s.71-2.777.83-3.139c.005-.02.007-.03.014-.04zm2.417 2.24c-.171 0-.484.041-.765.174-.102.051-.198.11-.3.168l.092-.321-.05-.054c-.597.117-.73.132-1.28.207l-.047.03c-.064.514-.12.9-.358 1.908-.09.372-.183.748-.277 1.119l.025.047a14 14 0 0 1 1.226-.021l.04-.042c.062-.31.07-.381.208-1.007.065-.297.2-.95.267-1.181.122-.055.243-.11.358-.11.275 0 .242.233.231.325-.012.156-.112.663-.214 1.098l-.069.281c-.048.208-.1.41-.148.616l.02.04a13.88 13.88 0 0 1 1.202-.02l.055-.042c.086-.483.111-.612.264-1.315l.076-.323c.15-.632.224-.952.111-1.213-.119-.293-.404-.363-.667-.363zm2.7.663c-.296.054-.484.091-.672.115-.185.029-.367.055-.652.093l-.023.02-.02.016c-.03.206-.051.384-.09.594-.034.216-.086.462-.17.816a3.13 3.13 0 0 1-.135.46c-.036.095-.075.187-.148.454l.017.024.014.023c.267-.013.442-.021.621-.023.18-.006.365 0 .653.002l.025-.02.027-.022c.042-.24.048-.305.073-.422.025-.125.069-.3.175-.764.05-.218.107-.435.159-.658.054-.221.11-.44.165-.658l-.008-.026-.011-.024zm.006-.893c-.269-.153-.74-.104-1.057.108-.317.207-.353.502-.085.658.264.15.737.105 1.052-.11.316-.211.355-.504.09-.656zm1.624 3.556c.544 0 1.1-.145 1.52-.576.323-.349.47-.868.522-1.082.167-.709.037-1.04-.126-1.241-.248-.307-.686-.406-1.14-.406-.274 0-.924.026-1.433.48-.365.327-.533.772-.635 1.198-.103.434-.221 1.215.52 1.506.23.095.56.12.772.12zm-.042-1.595c.125-.537.273-.987.65-.987.297 0 .318.335.186.873-.023.12-.131.564-.277.754-.102.14-.223.224-.356.224-.04 0-.276 0-.28-.34a2.243 2.243 0 0 1 .077-.524zm3.442 1.526l.043-.042c.06-.309.07-.382.203-1.007.067-.297.205-.95.27-1.181.123-.056.242-.11.36-.11.274 0 .24.233.23.325-.01.156-.11.663-.215 1.098l-.065.281c-.05.208-.104.41-.151.616l.02.04a13.57 13.57 0 0 1 1.2-.02l.057-.042c.084-.483.106-.612.263-1.315l.075-.323c.15-.632.225-.952.114-1.213-.122-.292-.41-.363-.668-.363-.172 0-.486.04-.766.174-.1.05-.2.109-.298.167l.086-.321-.046-.054c-.596.117-.732.132-1.282.208l-.042.03c-.067.513-.121.898-.358 1.907-.09.372-.184.748-.278 1.119l.025.047a13.95 13.95 0 0 1 1.223-.021zm4.1.02c.035-.165.243-1.148.245-1.148 0 0 .178-.721.188-.747 0 0 .056-.075.112-.105h.082c.775 0 1.65 0 2.337-.489.466-.335.786-.83.928-1.431a2.1 2.1 0 0 0 .064-.499c0-.23-.048-.458-.186-.636-.35-.474-1.046-.483-1.85-.486l-.397.003c-1.03.012-1.442.009-1.612-.011a23.93 23.93 0 0 1-.04.202l-.37 1.657-.924 3.685c.9-.01 1.268-.01 1.423.006zm.683-2.94l.39-1.645.013-.084.006-.065.156.016.828.069c.319.12.45.428.359.83-.084.367-.33.676-.647.826-.26.126-.58.137-.908.137h-.213l.016-.083zm2.441 1.425c-.103.427-.223 1.209.516 1.487.235.097.446.126.66.115.227-.012.436-.122.63-.28l-.052.196.034.041c.53-.021.695-.021 1.27-.017l.053-.038c.084-.479.163-.943.381-1.858.106-.438.213-.872.322-1.309l-.017-.048c-.594.107-.753.13-1.324.208l-.044.034-.017.13a.81.81 0 0 0-.416-.331c-.254-.097-.851.028-1.364.48-.36.323-.534.765-.632 1.19zm1.248.026c.127-.527.273-.973.651-.973.24 0 .366.213.34.578-.02.091-.042.187-.068.295-.038.157-.08.312-.12.468a1.12 1.12 0 0 1-.14.273c-.096.134-.328.217-.462.217-.037 0-.27 0-.279-.334a2.223 2.223 0 0 1 .078-.524zm6.514-1.74l-.046-.052c-.588.116-.694.134-1.234.205l-.04.038-.006.025-.002-.01c-.402.9-.39.705-.717 1.412l-.004-.086-.082-1.533-.051-.05c-.616.115-.63.133-1.2.204l-.043.038c-.007.018-.007.039-.01.06l.003.008c.071.352.054.274.126.829.033.272.077.546.11.815.056.45.088.672.156 1.36-.384.613-.475.845-.844 1.384l.002.005-.26.399c-.03.042-.057.07-.095.083a.405.405 0 0 1-.17.023h-.144l-.215.69.736.013c.431-.002.703-.197.849-.46l.462-.768h-.007l.049-.054c.31-.648 2.677-4.579 2.677-4.579zm-7.762 9.068h-.312l1.155-3.699h.383l.121-.38.012.423c-.014.262.199.494.758.456h.646l.222-.712h-.243c-.14 0-.205-.035-.196-.108l-.012-.431h-1.197v.002c-.387.008-1.543.036-1.777.096-.283.071-.581.279-.581.279l.117-.382h-1.12l-.233.757-1.17 3.755h-.227l-.223.708h2.23l-.075.235h1.1l.072-.235h.308l.242-.764zm-.915-2.947c-.18.048-.513.194-.513.194l.297-.946h.89l-.215.69s-.275.015-.459.062zm.017 1.35s-.28.034-.463.074a4.61 4.61 0 0 0-.52.221l.306-.983h.894l-.217.688zm-.498 1.606h-.893l.26-.83h.889l-.256.83zm2.149-2.294h1.286l-.185.58h-1.303l-.196.633h1.14l-.863 1.177a.354.354 0 0 1-.175.142.525.525 0 0 1-.232.064h-.316l-.217.695h.827c.43 0 .684-.19.872-.439l.592-.784.127.796c.027.15.138.237.213.271.083.04.168.11.29.12.13.005.223.01.285.01h.407l.244-.778h-.16c-.093 0-.251-.015-.278-.042-.027-.034-.027-.087-.042-.166l-.129-.799h-.528l.232-.267h1.3l.2-.634h-1.204l.188-.58h1.2l.223-.714h-3.58l-.218.715zM18.16 18.399l.3-.967h1.234l.226-.72h-1.235l.188-.595h1.207l.224-.696h-3.02l-.219.696h.686l-.183.596h-.688l-.228.731h.686l-.4 1.28c-.054.17.025.234.076.312a.33.33 0 0 0 .22.157c.121.026.204.041.317.041h1.39l.249-.796-.617.082c-.119 0-.449-.014-.413-.12zm.142-4.63l-.313.547a.639.639 0 0 1-.181.228c-.048.03-.143.041-.28.041h-.163l-.218.7h.542c.26 0 .46-.092.556-.138.103-.054.13-.023.21-.097l.182-.154h1.692l.224-.729h-1.238l.216-.398h-1.23zm2.498 4.644c-.03-.04-.009-.11.036-.258l.462-1.483h1.645c.24-.003.413-.006.525-.014a1.1 1.1 0 0 0 .396-.129.731.731 0 0 0 .288-.256c.071-.095.185-.303.284-.624l.581-1.875-1.707.01s-.526.074-.757.157c-.234.093-.567.351-.567.351l.154-.514h-1.055L19.61 18.52a2.846 2.846 0 0 0-.096.398c-.002.086.113.172.188.236.088.065.219.054.344.065.132.01.32.015.578.015h.81l.249-.813-.726.066a.193.193 0 0 1-.156-.074zm.796-2.742h1.728l-.11.334c-.015.007-.052-.017-.228.003H21.49l.106-.337zm.346-1.118h1.743l-.125.402s-.822-.008-.953.015a1.966 1.966 0 0 0-.917.397l.252-.814zm1.311 2.568a.178.178 0 0 1-.068.103c-.036.022-.092.03-.177.03h-.246l.014-.406h-1.024l-.041 1.985c-.002.143.012.226.12.292.109.083.442.094.891.094h.642l.231-.743-.558.03-.186.01c-.025-.01-.05-.02-.077-.046-.023-.023-.063-.009-.056-.152l.004-.509.586-.024c.316 0 .452-.1.567-.194.11-.091.146-.196.188-.337l.098-.45h-.805l-.103.317z" fill="#FEFEFE"/></g></g></svg>