<svg width="21" height="26" viewBox="0 0 21 26" xmlns="http://www.w3.org/2000/svg"><g fill-rule="nonzero" fill="none"><path d="M0 14.786c.062-1.005 1.764-1.651 3.173-2.014C5.103 12.274 7.657 12 10.36 12h.147C15.664 12 21 13.045 21 14.794l-.062.206-1.875-.539v-.125c0-.78-3.515-1.651-8.557-1.651-5.043 0-8.558.87-8.558 1.651v.125l-1.865.519L0 14.786z" fill="#FACF00"/><path fill="#262E38" d="M10.5 0L0 26h1.607L10.5 5.51 19.393 26H21L10.5 0z"/><path d="M10.506 18c-4.97 0-9.178-.751-10.231-1.827-.19-.193-.288-.397-.274-.607l.055-.1L1.95 15v.18c0 .677 3.515 1.432 8.558 1.432 5.041 0 8.555-.755 8.555-1.432V15l1.903.44.035.136c0 .874-1.71 1.435-3.143 1.752-1.965.433-4.575.672-7.35.672z" fill="#FACF00"/></g></svg>