<svg width="20" height="19" viewBox="0 0 20 19" xmlns="http://www.w3.org/2000/svg"><g fill="none" fill-rule="evenodd"><path d="M19.952 7.327c0-.357-.381-.5-.667-.548l-5.981-.87-2.68-5.42C10.515.262 10.313 0 10.04 0c-.274 0-.477.262-.584.488L6.776 5.91l-5.982.87c-.298.048-.667.19-.667.548 0 .215.155.417.298.572l4.337 4.218-1.025 5.957c-.012.083-.024.155-.024.238 0 .31.155.596.5.596.167 0 .322-.06.477-.143l5.35-2.812 5.349 2.812c.143.083.31.143.477.143.345 0 .488-.286.488-.596 0-.083 0-.155-.012-.238l-1.024-5.957 4.324-4.218c.155-.155.31-.357.31-.572z" fill="#CCC"/><path d="M.127 7.206c.074-.27.39-.385.651-.427l5.981-.87L9.44.49C9.547.262 9.75 0 10.024 0c.274 0 .476.262.584.488l2.68 5.421 1.686.246v12.4l-4.95-2.602-5.35 2.812c-.155.083-.31.143-.476.143-.346 0-.5-.286-.5-.596 0-.083.011-.155.023-.238l1.025-5.957L.409 7.899c-.116-.125-.24-.282-.282-.45v-.243z" fill="#26BEC9"/></g></svg>