<svg width="20" height="20" viewBox="0 0 20 20" xmlns="http://www.w3.org/2000/svg"><g fill="none" fill-rule="evenodd"><path d="M19.992 7.389c0-.36-.385-.505-.673-.553l-6.031-.877L10.585.493C10.476.264 10.272 0 9.995 0c-.275 0-.48.264-.588.493L6.704 5.959l-6.031.877c-.3.048-.673.192-.673.553 0 .216.156.42.3.577l4.374 4.253-1.034 6.007c-.012.084-.024.156-.024.24 0 .312.156.6.505.6.168 0 .324-.06.48-.143l5.395-2.836 5.394 2.836a.976.976 0 0 0 .48.144c.35 0 .493-.289.493-.601 0-.084 0-.156-.012-.24l-1.033-6.007 4.361-4.253c.157-.157.313-.36.313-.577z" fill="#CCC"/><path d="M4.987 6.209V18.72l-.386.203a1.014 1.014 0 0 1-.48.144c-.349 0-.505-.289-.505-.601 0-.084.012-.156.024-.24l1.034-6.007L.3 7.966c-.144-.157-.3-.36-.3-.577 0-.36.372-.505.673-.553l4.314-.627z" fill="#26BEC9"/></g></svg>