<svg width="125" height="57" viewBox="0 0 125 57" xmlns="http://www.w3.org/2000/svg"><path d="M12.57 22.784a61.261 61.261 0 0 0-.03 2.035c0 3.992 3.73 7.204 7.23 7.228a7.034 7.034 0 0 0 2.472-.43v4.69c-.806.174-1.64.268-2.498.268-5.697 0-10.446-4.562-11.522-9.942l-2.746 2.766v7.14H0V1.427h5.476v21.005l9.434-9.412h6.846l-9.185 9.765zm60.716-8.282v10.412c0 6.49-5.261 11.751-11.75 11.751-6.492 0-11.751-5.261-11.751-11.75 0-6.49 5.26-11.752 11.75-11.752 2.508 0 4.83.788 6.738 2.125V.606H73.286v13.896zM61.56 32.138a7.229 7.229 0 1 0 0-14.458 7.23 7.23 0 1 0 0 14.458zm2.388-7.268a2.412 2.412 0 1 1-4.824-.002 2.412 2.412 0 0 1 4.824.002zm23.456-11.672c6.49 0 11.751 5.26 11.751 11.75l-.115 10.104v1.656h-4.93v-2.114a11.682 11.682 0 0 1-6.706 2.105c-6.49 0-11.75-5.262-11.75-11.751 0-6.49 5.26-11.75 11.75-11.75zm0 19.114a7.23 7.23 0 0 0 7.229-7.23 7.23 7.23 0 1 0-7.229 7.23zm.026-9.851a2.412 2.412 0 1 1 0 4.825 2.412 2.412 0 0 1 0-4.825zm-42.706 9.621a7.183 7.183 0 0 0 3.371-.834c.113-.06.2-.334.332-.187.133.147 2.742 3.6 2.742 3.6a11.675 11.675 0 0 1-6.47 1.949c-5.722 0-10.487-4.43-11.533-9.85l-2.733 2.754v6.973h-5.478V1.154h5.478v21.392l9.525-9.527h6.85l-9.233 9.302c-.062.824-.08 1.767-.08 2.533a7.229 7.229 0 0 0 7.23 7.228zm79.9-7.108v19.65l-.005.002c0 .06.005.118.005.177 0 6.503-5.273 11.775-11.777 11.775-6.097 0-11.113-4.82-11.715-10.758l5.01.019c.053.551.117 1.176.196 1.46.632 2.276 3.33 4.736 6.509 4.736 3.18 0 5.92-2.461 6.51-4.862.328-1.335.395-7.473.39-12.66a11.712 11.712 0 0 1-6.9 2.236c-6.503 0-11.777-5.272-11.777-11.775 0-.06.004-.117.004-.176l-.004-.003V13.02H106s-.293 12.175.338 14.451c.632 2.276 3.33 4.734 6.509 4.734 3.18 0 5.92-2.459 6.51-4.86.59-2.401.337-14.325.337-14.325h4.93v11.775l-.005.003c0 .06.005.117.005.176z" fill="#26BEC9" fill-rule="evenodd"/></svg>