<svg width="40" height="25" viewBox="0 0 40 25" xmlns="http://www.w3.org/2000/svg"><g fill="none" fill-rule="evenodd"><path fill="#FAFAFA" d="M0 0h40v25H0z"/><path d="M17.407 7.182h-.03v3.82c0 .319.264.58.585.58h.504v1.33c0 .32.262.58.584.58.323 0 .585-.26.585-.58v-1.33h.787v1.33c0 .32.262.58.584.58.323 0 .584-.26.585-.58v-1.33h.49c.322 0 .585-.261.585-.58v-3.82h-5.259zm1.164-1.376c0 .136.111.247.248.247s.249-.11.249-.247a.247.247 0 0 0-.249-.246.247.247 0 0 0-.248.246zm2.405 0c0 .136.111.247.249.247.137 0 .248-.11.248-.247a.247.247 0 0 0-.248-.246.247.247 0 0 0-.249.246zM17.385 6.98a2.085 2.085 0 0 1 .063-.597c.164-.64.626-1.181 1.251-1.502l-.405-.742a.094.094 0 0 1 .038-.128.095.095 0 0 1 .129.038l.41.75c.35-.15.741-.233 1.156-.233.411 0 .8.083 1.147.23l.409-.747a.095.095 0 0 1 .129-.038.094.094 0 0 1 .038.128l-.404.738c.656.334 1.134.91 1.279 1.59.016.076.028.154.036.233v.28h-5.276zm6.656.68c0-.32-.262-.579-.585-.579a.582.582 0 0 0-.584.58v2.433c0 .32.262.58.584.58.323 0 .585-.26.585-.58V7.661zm-6.872 0v2.434c0 .32-.262.58-.585.58a.582.582 0 0 1-.584-.58V7.661c0-.32.262-.58.584-.58.323 0 .584.26.585.58z" fill="#78C257"/><path d="M27.18 15.084h-.754l-1.48 3.427-1.456-3.423h-.776l1.851 4.262-.147.331c-.165.368-.477.527-.776.527h-.246v.668h.237c.665 0 1.191-.354 1.472-1.026l2.075-4.766zm-4.868 4.43v-4.426h-.67v.505a2.077 2.077 0 0 0-1.48-.593 2.277 2.277 0 0 0-2.28 2.296c0 1.275 1.003 2.306 2.28 2.306.588 0 1.106-.226 1.48-.593v.504h.67zm-2.102-.558a1.657 1.657 0 0 1 0-3.314c.572 0 1.111.265 1.388.72.014.027.045.072.045.147v1.57a.264.264 0 0 1-.05.151 1.666 1.666 0 0 1-1.383.726zm-6.54 1.885v-1.832a2.08 2.08 0 0 0 1.48.597 2.283 2.283 0 0 0 2.28-2.3A2.284 2.284 0 0 0 15.15 15c-.588 0-1.106.226-1.48.593v-.505H13v5.753h.67zm1.432-1.88c-.572 0-1.103-.27-1.388-.722a.245.245 0 0 1-.045-.146v-1.589a.26.26 0 0 1 .05-.146 1.654 1.654 0 0 1 1.383-.712c.91 0 1.65.743 1.65 1.66 0 .91-.74 1.654-1.65 1.654z" fill="#757575"/></g></svg>