<svg width="40" height="25" viewBox="0 0 40 25" xmlns="http://www.w3.org/2000/svg"><g fill="none" fill-rule="evenodd"><path fill="#FAFAFA" d="M0 0h40v25H0z"/><g fill-rule="nonzero"><path d="M10.113 10.05H8.095a.28.28 0 0 0-.277.237l-.816 5.179a.168.168 0 0 0 .167.194h.963a.28.28 0 0 0 .277-.237l.22-1.397a.28.28 0 0 1 .277-.237h.638c1.33 0 2.096-.644 2.297-1.92.09-.558.003-.996-.258-1.304-.286-.337-.795-.515-1.47-.515zm.233 1.891c-.11.725-.664.725-1.199.725h-.304l.213-1.353a.168.168 0 0 1 .166-.142h.14c.364 0 .708 0 .886.207.105.125.138.309.098.563zM16.144 11.918h-.966a.168.168 0 0 0-.167.142l-.042.27-.068-.097c-.209-.304-.675-.406-1.141-.406-1.068 0-1.98.81-2.157 1.945-.092.567.039 1.108.36 1.486.294.347.715.492 1.217.492.86 0 1.337-.554 1.337-.554l-.043.269a.168.168 0 0 0 .166.195h.87a.28.28 0 0 0 .277-.237l.522-3.31a.168.168 0 0 0-.165-.195zm-1.347 1.883a1.077 1.077 0 0 1-1.09.923c-.28 0-.505-.09-.649-.26-.143-.17-.197-.412-.151-.68.087-.548.532-.931 1.082-.931.275 0 .498.091.645.263.147.174.205.417.163.685zM21.29 11.918h-.972a.281.281 0 0 0-.232.123l-1.339 1.975-.567-1.898a.281.281 0 0 0-.27-.2h-.953a.168.168 0 0 0-.16.223l1.07 3.141-1.006 1.421c-.08.112 0 .266.137.266h.97a.28.28 0 0 0 .23-.12l3.23-4.667a.168.168 0 0 0-.139-.264" fill="#283B82"/><path d="M24.504 10.05h-2.018a.28.28 0 0 0-.277.237l-.816 5.179a.168.168 0 0 0 .166.194h1.036c.096 0 .178-.07.193-.166l.232-1.468a.28.28 0 0 1 .276-.237h.639c1.33 0 2.096-.644 2.296-1.92.091-.558.004-.996-.257-1.304-.287-.337-.795-.515-1.47-.515zm.233 1.891c-.11.725-.664.725-1.199.725h-.304l.214-1.353a.168.168 0 0 1 .166-.142h.14c.363 0 .707 0 .885.207.106.125.138.309.098.563zM30.535 11.918h-.966a.167.167 0 0 0-.166.142l-.043.27-.067-.097c-.21-.304-.676-.406-1.141-.406-1.068 0-1.98.81-2.157 1.945-.092.567.038 1.108.36 1.486.295.347.715.492 1.216.492.86 0 1.338-.554 1.338-.554l-.043.269a.168.168 0 0 0 .166.195h.87a.28.28 0 0 0 .277-.237l.522-3.31a.169.169 0 0 0-.166-.195zm-1.347 1.883a1.077 1.077 0 0 1-1.09.923c-.28 0-.505-.09-.649-.26-.143-.17-.197-.412-.152-.68.088-.548.533-.931 1.083-.931.274 0 .497.091.644.263.148.174.207.417.164.685zM31.674 10.192l-.829 5.274a.168.168 0 0 0 .166.194h.833a.28.28 0 0 0 .277-.237l.816-5.179a.168.168 0 0 0-.165-.195h-.933a.169.169 0 0 0-.165.143" fill="#469BDB"/></g></g></svg>