<svg version="1.2" baseProfile="tiny" xmlns="http://www.w3.org/2000/svg" width="25" height="25" viewBox="0 0 25 25"><path fill="#00B900" d="M20.479 0H4.557C2.057-.006.003 2.021 0 4.518v15.928C-.003 22.948 2.021 25 4.521 25h15.922c2.501.006 4.553-2.021 4.557-4.518V4.554C25.004 2.051 22.979 0 20.479 0"/><path fill="#FFF" d="M21.562 11.398c0-4.072-4.083-7.387-9.102-7.387s-9.103 3.315-9.103 7.387c0 3.657 3.238 6.715 7.612 7.289.297.067.7.196.802.452.092.232.06.592.029.824l-.13.775c-.04.232-.183.903.789.495.972-.409 5.242-3.089 7.152-5.287h-.001c1.32-1.447 1.952-2.918 1.952-4.548"/><path fill="#00B900" d="M10.61 9.432h-.638a.178.178 0 0 0-.178.177v3.968c0 .098.08.177.178.177h.638c.098 0 .177-.08.177-.177V9.609a.177.177 0 0 0-.177-.177m4.395 0h-.639a.177.177 0 0 0-.178.177v2.357l-1.817-2.455a.22.22 0 0 0-.014-.018h-.001c-.004-.006-.007-.012-.011-.012-.001 0-.002 0-.003-.006-.003 0-.006 0-.009-.006h-.005c-.003-.006-.006-.006-.009-.006-.001-.006-.003-.006-.005-.006-.003 0-.006-.006-.009-.006H12.3c-.003-.006-.007-.006-.01-.006h-.006c-.003-.006-.007-.006-.011-.006h-.006c-.003 0-.007 0-.01-.006h-.67a.178.178 0 0 0-.178.177v3.968c0 .098.08.177.178.177h.638c.098 0 .177-.08.177-.177v-2.356l1.82 2.454a.193.193 0 0 0 .045.049h.002c.004 0 .008.006.012.006h.004c.003.006.006.006.009.006s.005 0 .009.006h.006c.004 0 .008 0 .012.006h.002c.015 0 .03.006.046.006h.639c.098 0 .177-.08.177-.177V9.609a.181.181 0 0 0-.18-.177m-5.934 3.327H7.336v-3.15a.177.177 0 0 0-.177-.177h-.638a.177.177 0 0 0-.177.177v3.968c0 .049.019.092.049.122h.002c.001 0 .002 0 .003.006.032.03.075.049.122.049h2.55c.098 0 .177-.08.177-.177v-.641a.176.176 0 0 0-.176-.177m9.459-2.332c.098 0 .177-.08.177-.177v-.641a.177.177 0 0 0-.177-.177h-2.551a.175.175 0 0 0-.123.049h-.002c-.001.006-.002.006-.003.006a.173.173 0 0 0-.049.122v3.968c0 .049.019.092.049.122h.003c.001 0 .002 0 .003.006.031.03.074.049.122.049h2.551c.098 0 .177-.08.177-.177v-.641a.177.177 0 0 0-.177-.177h-1.734v-.671h1.734c.098 0 .177-.08.177-.177v-.641a.177.177 0 0 0-.177-.177h-1.734v-.666h1.734z"/></svg>