<svg width="48" height="48" viewBox="0 0 24 24" xmlns="http://www.w3.org/2000/svg"><g fill-rule="nonzero" fill="none"><path d="M18.383 2H5.646c-2-.005-3.644 1.617-3.646 3.614v12.743C1.998 20.358 3.617 22 5.617 22h12.737c2.001.005 3.643-1.617 3.646-3.614V5.643C22.003 3.641 20.383 2 18.383 2" fill="#399AD9"/><path d="M16.575 10.68a4.828 4.828 0 1 0-9.266 0c-.608.488-2.968 2.604-1.997 5.348 0 .402.821.33 1.496-.918.205.798.586 1.124 1.107 1.73-.763.225-1.28.66-1.28 1.16 0 .73 1.101 1.32 2.458 1.32.921 0 1.723-.272 2.144-.675.231.03.465.052.704.052.24 0 .474-.021.705-.052.421.403 1.223.675 2.144.675 1.357 0 2.458-.591 2.458-1.32 0-.5-.517-.935-1.28-1.16.52-.606.903-.932 1.108-1.73.674 1.247 1.494 1.32 1.494.918.973-2.745-1.387-4.861-1.995-5.349z" stroke="#FFF" fill="none"/></g></svg>