<svg version="1.2" baseProfile="tiny" xmlns="http://www.w3.org/2000/svg" width="25" height="25" viewBox="0 0 25 25"><switch><g><path fill="#1DA1F2" d="M20.479 0H4.557C2.057-.006.003 2.021 0 4.518v15.928C-.003 22.949 2.021 25 4.521 25h15.922c2.501.006 4.553-2.02 4.557-4.518V4.555C25.004 2.051 22.979 0 20.479 0"/><g><g><path fill="#FFF" d="M9.718 18.595c5.66 0 8.756-4.689 8.756-8.756 0-.133-.003-.266-.01-.397A6.254 6.254 0 0 0 20 7.848a6.165 6.165 0 0 1-1.768.485 3.09 3.09 0 0 0 1.354-1.703 6.156 6.156 0 0 1-1.954.747 3.077 3.077 0 0 0-5.244 2.806 8.737 8.737 0 0 1-6.343-3.216 3.063 3.063 0 0 0-.417 1.547c0 1.068.543 2.011 1.37 2.562a3.062 3.062 0 0 1-1.394-.386v.04a3.08 3.08 0 0 0 2.47 3.017 3.107 3.107 0 0 1-1.391.052 3.083 3.083 0 0 0 2.875 2.138A6.18 6.18 0 0 1 5 17.211a8.695 8.695 0 0 0 4.717 1.384"/></g></g></g></switch></svg>