<svg version="1.2" baseProfile="tiny" xmlns="http://www.w3.org/2000/svg" width="25" height="25" viewBox="0 0 25 25"><path fill="#7C529E" d="M3.748.03a4.484 4.484 0 0 0-1.51.476C1.11 1.099.273 2.254.05 3.526c-.048.27-.05.633-.05 9.033v8.754l.061.271c.386 1.74 1.617 2.969 3.36 3.354l.273.062h17.613l.272-.062c1.743-.385 2.974-1.614 3.36-3.354l.061-.271v-8.754c0-8.4-.003-8.764-.05-9.033a4.286 4.286 0 0 0-.405-1.19A4.26 4.26 0 0 0 21.207.024C20.881-.01 4.063-.007 3.747.03zm9.563 4.445a7.452 7.452 0 0 1 2.482.735c.803.393 1.316.764 1.996 1.44.637.639.99 1.123 1.365 1.873.522 1.048.819 2.293.87 3.665.019.467.005.572-.102.705-.203.26-.65.217-.803-.074-.048-.097-.062-.18-.077-.554a9.637 9.637 0 0 0-.148-1.39c-.316-1.739-1.15-3.13-2.484-4.126-1.11-.834-2.259-1.24-3.764-1.328-.508-.03-.595-.048-.71-.137-.215-.168-.225-.564-.02-.748.127-.115.215-.13.65-.117.229.007.563.034.744.056zm-6.119.288c.094.032.239.107.322.16.508.337 1.924 2.146 2.386 3.05.266.516.354.898.272 1.181-.086.305-.229.465-.862.976-.255.206-.494.417-.53.473a1.248 1.248 0 0 0-.174.604c.002.446.292 1.257.671 1.879.295.483.823 1.104 1.344 1.578.614.563 1.154.944 1.764 1.246.784.391 1.264.489 1.614.327.09-.04.183-.094.212-.118.027-.025.233-.275.457-.552.434-.547.533-.635.83-.737.377-.127.763-.093 1.15.106.296.152.938.55 1.352.838.547.383 1.713 1.334 1.871 1.523.28.342.327.781.14 1.266-.198.51-.969 1.467-1.507 1.875-.487.369-.832.51-1.287.531-.375.02-.53-.012-1.01-.21-3.758-1.548-6.758-3.856-9.14-7.03-1.245-1.656-2.193-3.375-2.84-5.157-.378-1.04-.397-1.492-.086-2.023.134-.225.704-.78 1.119-1.09.69-.514 1.009-.704 1.263-.757.174-.038.477-.008.67.061zm6.304 1.65c1.625.237 2.883.99 3.707 2.215.463.69.752 1.499.852 2.368.034.318.034.897-.004.994a.602.602 0 0 1-.243.264.593.593 0 0 1-.45-.015c-.206-.105-.268-.27-.268-.72 0-.692-.179-1.421-.49-1.988a4.06 4.06 0 0 0-1.493-1.553c-.538-.32-1.334-.558-2.058-.617-.262-.022-.406-.075-.506-.19a.487.487 0 0 1-.041-.604c.14-.216.353-.251.994-.155zm.57 2.017c.528.112.932.313 1.277.636.444.42.688.927.795 1.657.072.476.043.663-.126.818-.159.144-.45.149-.627.013-.128-.096-.168-.198-.198-.473-.035-.366-.1-.622-.209-.86-.235-.506-.65-.767-1.351-.853-.33-.04-.428-.077-.535-.203a.498.498 0 0 1 .149-.748c.102-.051.145-.057.37-.043.139.008.345.032.455.056z"/></svg>