<svg width="768" height="768" viewBox="0 0 768 768" xmlns="http://www.w3.org/2000/svg" xmlns:xlink="http://www.w3.org/1999/xlink"><defs><path d="M375 .596h-.732.733H375zm375 375.001c0 206.946-167.634 374.74-374.52 375H750v-375zm-375.48 375C167.635 750.337 0 582.543 0 375.597v375h374.52z" id="a"/><path d="M375 .999C167.893.999 0 168.894 0 376c0 207.106 167.893 375 375 375s375-167.894 375-375S582.107.999 375 .999z" id="c"/></defs><g fill="none" fill-rule="evenodd"><path d="M759 384c0 207.106-167.894 375-375 375S9 591.106 9 384 176.894 9 384 9s375 167.894 375 375" fill="#EEE"/><g transform="translate(9 8)"><g transform="translate(0 .403)"><mask id="b" fill="#fff"><use xlink:href="#a"/></mask><path d="M750 375.597c0 207.106-167.894 375-375 375S0 582.703 0 375.597s167.894-375 375-375 375 167.894 375 375" fill="#EEE" mask="url(#b)"/></g><mask id="d" fill="#fff"><use xlink:href="#c"/></mask><path fill="#DDD" mask="url(#d)" d="M460.178 762.403h31.032V504.759h-31.032zM514.485 494.128c0 1.317-.846 2.388-1.893 2.388h-73.8c-1.04 0-1.892-1.071-1.892-2.388V467.87c0-1.318.851-2.388 1.892-2.388h73.8c1.047 0 1.893 1.07 1.893 2.388v26.258zM148.361 581.792c-8.594 28.625 21.631 51.533 68.74 51.533 47.11 0 93.623-22.908 105.387-51.533h.057l40.573-114.113H188.875l-40.573 114.113h.06zM652.382 285.55c-1.575-43.072-39.694-77.549-86.524-77.624H278.93c-46.844.06-84.981 34.544-86.554 77.624h-.058v171.88H652.44V285.55h-.06z"/><path d="M365.731 285.55c-1.576-43.119-39.778-77.625-86.677-77.625-46.9 0-85.102 34.506-86.677 77.625h-.059v171.88h173.47V285.55h-.057z" fill="#CCC" mask="url(#d)"/><path d="M581.645 183.156c0 2.389-1.38 4.325-3.082 4.325H481.93c-1.703 0-3.084-1.936-3.084-4.325v-44.69c0-2.386 1.38-4.325 3.084-4.325h96.632c1.702 0 3.082 1.939 3.082 4.326v44.689z" fill="#DDD" mask="url(#d)"/><path d="M478.53 134.976c-.002-3.854-3.474-6.976-7.758-6.976-4.286 0-7.76 3.122-7.76 6.976v150.405h15.518V134.976z" fill="#CCC" mask="url(#d)"/><path d="M489.599 280.693c0 10.398-8.428 18.83-18.828 18.83-10.401 0-18.827-8.432-18.827-18.83 0-10.398 8.426-18.828 18.827-18.828 10.4 0 18.828 8.43 18.828 18.828" fill="#CCC" mask="url(#d)"/><path d="M479.498 280.695a8.728 8.728 0 1 1-17.453-.003 8.728 8.728 0 0 1 17.453.003" fill="#FFF" mask="url(#d)"/><path d="M421.228 285.56c-1.171-42.655-30.916-73.914-65.788-73.914-2.688 0-5.764-.274-8.365.121 31.151 4.715 57.197 34.425 58.28 73.793.023.911.042 1.824.042 2.74v169.196h15.875V285.56h-.043zM611.31 285.56c-1.171-42.655-30.914-73.914-65.788-73.914-2.69 0-5.764-.274-8.367.121 31.153 4.715 57.199 34.425 58.283 73.793.024.911.043 1.824.043 2.74v169.196h15.873V285.56h-.043z" fill="#F4F4F4" mask="url(#d)"/><path d="M343.416 366.916c-.037-.002-.074-.011-.113-.011-.038 0-.074.009-.113.01h-15.354s-3.281-.073-5.121 0h-14.992c-13.59-.626-24.004-2.992-31.962-6.351-.353-.16-.702-.312-1.058-.466-18.501-8.24-23.213-21.905-24.217-30.545l-.195-7.957c-2.244-22.618-25.129-40.4-53.05-40.4-27.926 0-50.81 17.782-53.053 40.4l-.196 20.633s-.025.709 0 1.107v5.075c-.781 13.268-7.081 28.187-7.081 28.187l.056.039c-2.943 6.453-4.553 13.406-4.553 20.66 0 11.795 4.243 22.805 11.578 32.132 9.952 12.653 25.78 22.282 43.395 26.27 9.152 2.07 17.991 2.376 27.366 2.376 9.705 0 19.413.005 29.114.069 14.262.09 26.184-2.996 37.881-9.73 12.508-7.205 21.919-17.651 29.383-28.505 5.129-7.453 9.896-15.085 15.029-22.542 5.145-7.468 10.251-14.957 15.392-22.43 1.184-1.726 2.358-3.455 3.553-5.177l.168-.25c.142-.24.227-.503.227-.788 0-.972-.923-1.757-2.084-1.806" fill="#FFF" mask="url(#d)"/><path d="M183.614 327.361a8.65 8.65 0 0 1-8.65 8.653 8.653 8.653 0 1 1 8.651-8.653M144.086 343.584l-18.311-9.455 18.31-9.457zM290.111 411.063c-3.742-3.253-7.887-6.573-12.474-10.015l.44.244c-1.345-1-2.626-1.91-3.878-2.777-10.85-7.538-18.073-10.32-20.818-11.19 1.35.846 2.556 1.625 3.664 2.356 1.36.895 2.578 1.727 3.74 2.547 8.64 6.108 15.834 11.713 21.93 17.088-1.406.54-2.803 1.314-4.167 2.065-.949.526-1.844 1.021-2.673 1.4-10.66 4.83-24.733 10.38-39.063 10.38a55.54 55.54 0 0 1-2.895-.075c-9.734-.505-19.464-3.848-28.145-9.669a47.914 47.914 0 0 1-6.146-4.87 18.375 18.375 0 0 1-1.23-1.285c-10.017-10.716-9.683-26.146-9.683-26.146-2.01 4.625-2.47 8.815-1.489 13.59 1.39 6.782 4.747 13.764 8.76 18.216 1.746 1.94 3.922 3.536 5.842 4.946 4.12 3.017 9.055 5.684 15.083 8.155 2.608 1.07 5.128 1.894 7.492 2.455 4.086.968 8.374 1.456 12.753 1.456 16.326 0 31.973-6.719 43.773-12.572.95-.469 1.92-1.049 2.948-1.663 1.935-1.154 3.935-2.349 5.765-2.765l2.081-.47-1.61-1.4z" fill="#CCC" mask="url(#d)"/></g></g></svg>