<svg width="768" height="768" viewBox="0 0 768 768" xmlns="http://www.w3.org/2000/svg"><g fill="none" fill-rule="evenodd"><path d="M759 384c0 207.106-167.894 375-375 375S9 591.106 9 384 176.894 9 384 9s375 167.894 375 375" fill="#EEE"/><path d="M241.436 599.34c0 17.227 20.483 31.192 45.751 31.192 25.267 0 45.751-13.965 45.751-31.192 0-.462-.023-.918-.05-1.373h-91.401c-.03.455-.051.91-.051 1.373" fill="#CCC"/><path d="M286.571 297.83c11.16 0 20.494 6.146 22.887 14.383a133.678 133.678 0 0 0-22.27-1.862c-8.069 0-15.949.721-23.57 2.084 2.288-8.347 11.692-14.605 22.953-14.605m145.717 258.21c-1.01-9.124-7.81-16.702-16.51-18.17-1.052-.178-2.128 0-3.227 0-1.099 0-2.176.097-3.227.272h-1.983l-2.536-141.839c-8.682-37.479-38.92-67.834-78.52-80.09.266-1.465.411-2.957.411-4.477 0-17.225-17.688-31.19-39.509-31.19-21.82 0-39.51 13.965-39.51 31.19 0 1.52.144 3.012.411 4.476-39.598 12.257-69.837 42.612-78.52 80.091l-2.537 141.84h-1.96a19.626 19.626 0 0 0-3.227-.273c-1.1 0-2.176.097-3.227.272-8.756 1.48-15.588 8.865-16.53 18.07a21.056 21.056 0 0 0 0 4.371v26.644c0 1.507 1.072 2.728 2.398 2.728H429.89c1.324 0 2.398-1.22 2.398-2.728v-26.473c.086-.775.135-1.559.135-2.357 0-.799-.049-1.583-.135-2.358M628.405 181.51H412.702a8.628 8.628 0 0 0-8.628 8.629v95.986a8.628 8.628 0 0 0 8.628 8.629h11.204c-.393 6.559-3.815 21.045-25.263 29.768l-.16.06a1.124 1.124 0 0 0-.627.998c0 .598.467 1.075 1.055 1.116.026.002.048.015.074.015.03 0 .058-.017.089-.02 13.364-.292 45.717-4.072 68.656-31.937h160.675a8.628 8.628 0 0 0 8.628-8.63V190.14a8.628 8.628 0 0 0-8.628-8.628" fill="#DDD"/><path d="M484.398 237.954c0 7.907-6.413 14.318-14.32 14.318-7.908 0-14.318-6.41-14.318-14.318 0-7.908 6.41-14.319 14.318-14.319 7.907 0 14.32 6.411 14.32 14.32M533.249 237.954c0 7.907-6.41 14.318-14.318 14.318-7.907 0-14.318-6.41-14.318-14.318 0-7.908 6.411-14.319 14.318-14.319 7.908 0 14.318 6.411 14.318 14.32M582.102 237.954c0 7.907-6.41 14.318-14.317 14.318-7.91 0-14.32-6.41-14.32-14.318 0-7.908 6.41-14.319 14.32-14.319 7.908 0 14.317 6.411 14.317 14.32" fill="#FFF"/></g></svg>