<svg width="768" height="768" viewBox="0 0 768 768" xmlns="http://www.w3.org/2000/svg"><g fill="none" fill-rule="evenodd"><path d="M759 384c0 207.106-167.894 375-375 375S9 591.106 9 384 176.894 9 384 9s375 167.894 375 375" fill="#EEE"/><path d="M480.375 130.857H242.337c-8.269 0-14.974 6.703-14.974 14.977v449.3c0 8.266 6.705 14.974 14.974 14.974h329.486c8.271 0 14.975-6.708 14.975-14.975V237.28L480.375 130.857z" fill="#DDD"/><path d="M469.299 228.575c0 8.272 6.705 14.978 14.978 14.978h91.445L469.299 137.13v91.445z" fill="#EEE"/><path d="M304.53 313.963c0 7.689-6.234 13.923-13.923 13.923-7.69 0-13.925-6.234-13.925-13.923 0-7.69 6.234-13.923 13.925-13.923 7.69 0 13.923 6.233 13.923 13.923M522.092 313.963c0-7.677-6.21-13.897-13.88-13.921v-.002H348.137v.004c-.03 0-.063-.004-.093-.004-7.69 0-13.925 6.233-13.925 13.923 0 7.689 6.235 13.923 13.925 13.923.03 0 .063-.004.093-.004v.004h160.077v-.002c7.669-.025 13.879-6.248 13.879-13.921M304.53 384.357c0 7.69-6.234 13.926-13.923 13.926-7.69 0-13.925-6.237-13.925-13.926 0-7.69 6.234-13.923 13.925-13.923 7.69 0 13.923 6.233 13.923 13.923M522.092 384.357c0-7.675-6.21-13.896-13.88-13.92v-.003H348.137v.004c-.03 0-.063-.004-.093-.004-7.69 0-13.925 6.233-13.925 13.923s6.235 13.926 13.925 13.926c.03 0 .063-.007.093-.007v.007h160.077v-.003c7.669-.026 13.879-6.248 13.879-13.923M522.092 454.755c0-7.678-6.21-13.9-13.88-13.923v-.002H348.137v.003l-.093-.003c-7.69 0-13.925 6.232-13.925 13.925 0 7.688 6.235 13.923 13.925 13.923.03 0 .063-.005.093-.005v.005h160.077v-.002c7.669-.026 13.879-6.25 13.879-13.921" fill="#FFF"/><path fill="#CCC" d="M393.92 546.047l5.194 10.522 11.616 1.689-8.406 8.19 1.984 11.568-10.388-5.46-10.387 5.46 1.98-11.567-8.403-8.191 11.615-1.69zM432.94 546.047l5.192 10.522 11.618 1.689-8.406 8.19 1.983 11.568-10.387-5.46-10.39 5.46 1.984-11.567-8.402-8.191 11.613-1.69zM471.957 546.047l5.196 10.522 11.615 1.689-8.407 8.19 1.987 11.568-10.391-5.46-10.386 5.46 1.984-11.567-8.405-8.191 11.614-1.69zM510.978 546.047l5.192 10.522 11.617 1.689-8.406 8.19 1.983 11.568-10.387-5.46-10.388 5.46 1.983-11.567-8.407-8.191 11.618-1.69zM549.997 546.047l5.192 10.522 11.615 1.689-8.4 8.19 1.981 11.568-10.388-5.46-10.392 5.46 1.985-11.567-8.405-8.191 11.617-1.69z"/><path d="M242.549 651.688c-56.59 0-102.472-45.88-102.474-102.476.002-56.594 45.885-102.474 102.476-102.474 56.602 0 102.478 45.88 102.478 102.474 0 56.596-45.876 102.476-102.48 102.476" fill="#FFF"/><path d="M242.549 634.037c-46.841 0-84.818-37.977-84.821-84.824.003-46.848 37.98-84.822 84.823-84.822 46.85 0 84.826 37.974 84.826 84.822 0 46.847-37.975 84.824-84.828 84.824z" stroke="#DDD" stroke-width="8"/><path d="M251.385 559.766c0-1.164.011-5.846.209-6.955v1.348l24.324-25.799h-18.222l-25.114 25.052V499H218v91.973h14.582v-19.012l7.312-7.365c2.858 14.326 15.501 26.471 30.672 26.471 2.282 0 4.502-.25 6.645-.715v-12.481a18.768 18.768 0 0 1-6.58 1.143c-9.313-.066-19.246-8.617-19.246-19.248" fill="#CCC"/></g></svg>