<svg version="1.2" baseProfile="tiny" xmlns="http://www.w3.org/2000/svg" width="25" height="25" viewBox="0 0 25 25"><switch><g><g><path fill="#FFE812" d="M25 23.047A1.953 1.953 0 0 1 23.047 25H1.953A1.953 1.953 0 0 1 0 23.047V1.953C0 .875.875 0 1.953 0h21.094C24.126 0 25 .875 25 1.953v21.094z"/><path fill="#3C1E1E" d="M12.5 3.516c-5.609 0-10.156 3.585-10.156 8.008 0 2.859 1.901 5.368 4.761 6.785-.156.536-1 3.451-1.034 3.681 0 0-.02.172.091.237s.243.015.243.015c.32-.045 3.706-2.423 4.292-2.836.585.083 1.188.126 1.804.126 5.609 0 10.156-3.585 10.156-8.008-.001-4.423-4.548-8.008-10.157-8.008z"/><path fill="#FFE812" d="M6.885 14.318a.574.574 0 0 1-.586-.56v-3.48h-.914a.575.575 0 1 1 0-1.148h3a.575.575 0 1 1 0 1.148h-.914v3.48c0 .309-.263.56-.586.56zM12.022 14.312c-.244 0-.431-.1-.487-.259l-.29-.76H9.458l-.29.76c-.057.159-.243.259-.487.259a.89.89 0 0 1-.372-.081c-.162-.074-.317-.279-.14-.832l1.401-3.69c.1-.281.399-.57.781-.579.382.009.682.298.781.579l1.4 3.688c.179.554.023.759-.138.833a.89.89 0 0 1-.372.082zm-1.085-2.057l-.585-1.663-.585 1.663h1.17zM13.477 14.233a.55.55 0 0 1-.562-.537V9.717c0-.323.269-.586.599-.586.329 0 .598.263.598.586v3.442h1.245c.31 0 .562.241.562.537s-.252.537-.562.537h-1.88zM16.731 14.312a.587.587 0 0 1-.586-.586V9.717a.587.587 0 0 1 1.172 0v1.259l1.635-1.635c.085-.084.2-.13.325-.13.146 0 .293.063.403.173a.573.573 0 0 1 .172.371.455.455 0 0 1-.129.357l-1.335 1.335 1.442 1.911a.584.584 0 0 1-.469.939.583.583 0 0 1-.468-.232l-1.374-1.821-.203.203v1.278a.585.585 0 0 1-.585.587z"/></g></g></switch></svg>