<svg version="1.2" baseProfile="tiny" xmlns="http://www.w3.org/2000/svg" width="25" height="25" viewBox="0 0 25 25"><path fill="#FFFC00" d="M0 18.642c.015.556.02 1.114.113 1.666.099.583.241 1.152.512 1.682a5.378 5.378 0 0 0 1.503 1.816c.456.355.953.637 1.505.815.803.259 1.632.357 2.473.362.524.004 1.048.017 1.573.015 3.812-.017 7.623.027 11.435-.023a8.97 8.97 0 0 0 1.499-.159 5.08 5.08 0 0 0 2.512-1.221c.839-.748 1.404-1.662 1.659-2.766.168-.722.209-1.453.217-2.188v-.146c0-.058-.021-12.479-.024-12.644a7.565 7.565 0 0 0-.123-1.343c-.103-.541-.248-1.068-.508-1.558a5.403 5.403 0 0 0-1.04-1.388A5.165 5.165 0 0 0 21.035.267c-.788-.21-1.592-.257-2.402-.256-.001 0-.004-.009-.004-.013H6.369l-.001.015c-.46.008-.92.005-1.377.062-.501.062-.997.155-1.471.33a5.173 5.173 0 0 0-1.95 1.279A5.153 5.153 0 0 0 .265 3.962C.055 4.743.009 5.54.008 6.343"/><path fill="#FFF" d="M12.613 21.093a2.71 2.71 0 0 1-.14-.004.917.917 0 0 1-.092.004c-1.09 0-1.819-.515-2.463-.97-.462-.326-.896-.634-1.406-.718a4.497 4.497 0 0 0-.74-.062c-.434 0-.776.066-1.026.115-.153.03-.286.057-.389.057-.107 0-.238-.024-.293-.21-.043-.146-.074-.288-.104-.425-.075-.341-.129-.55-.257-.569-1.368-.211-2.177-.521-2.338-.898a.339.339 0 0 1-.028-.118.22.22 0 0 1 .184-.229c1.087-.179 2.053-.753 2.872-1.706a6.455 6.455 0 0 0 .984-1.532c.157-.32.188-.597.094-.821-.177-.416-.761-.601-1.146-.724a3.54 3.54 0 0 1-.26-.088c-.343-.135-.905-.42-.83-.814.055-.287.435-.487.742-.487.085 0 .161.015.225.045.348.162.66.245.929.245.334 0 .496-.128.535-.164-.01-.178-.021-.366-.033-.545v-.002c-.078-1.247-.177-2.8.221-3.689 1.189-2.664 3.712-2.871 4.456-2.871l.324-.004h.044c.747 0 3.274.207 4.464 2.873.397.891.3 2.444.221 3.693l-.004.06c-.011.17-.021.33-.028.485.036.034.184.15.484.162.257-.01.551-.092.875-.243a.698.698 0 0 1 .287-.057c.113 0 .229.021.326.062l.005.002c.275.098.456.292.46.497.003.191-.139.477-.838.752a4.04 4.04 0 0 1-.259.088c-.387.123-.971.308-1.146.723-.096.226-.064.502.094.822l.005.011c.049.113 1.226 2.795 3.851 3.227.11.019.19.117.184.229a.34.34 0 0 1-.029.119c-.159.374-.968.685-2.336.896-.129.021-.183.228-.257.567a5.89 5.89 0 0 1-.104.422c-.04.136-.128.202-.271.202h-.021a2.23 2.23 0 0 1-.39-.049 5.066 5.066 0 0 0-1.025-.108c-.241 0-.49.021-.74.062-.51.085-.944.392-1.405.717-.647.454-1.377.97-2.468.97"/><path fill="#020202" d="M12.678 4.127c.703 0 3.123.188 4.264 2.743.375.841.279 2.365.202 3.589a50.57 50.57 0 0 0-.034.562l-.004.077.052.058c.021.023.216.228.65.244h.014c.287-.011.61-.1.962-.265a.49.49 0 0 1 .193-.035c.083 0 .171.015.243.046l.012.004c.184.064.314.187.316.296.001.062-.046.286-.698.544a4.506 4.506 0 0 1-.245.083c-.425.135-1.066.338-1.282.847-.122.286-.089.624.099 1.004.077.18 1.289 2.908 4.018 3.357a.122.122 0 0 1-.012.044c-.046.108-.34.484-2.169.767-.286.044-.356.364-.438.737a5.728 5.728 0 0 1-.1.407c-.013.042-.016.044-.061.044h-.021c-.081 0-.204-.017-.347-.045a5.347 5.347 0 0 0-1.068-.112 4.68 4.68 0 0 0-.776.065c-.56.093-1.015.415-1.497.755-.646.457-1.316.931-2.337.931-.044 0-.088-.002-.132-.004l-.011-.001-.012.001a.967.967 0 0 1-.076.004c-1.021 0-1.689-.474-2.337-.931-.482-.34-.938-.662-1.497-.755a4.796 4.796 0 0 0-.775-.065c-.454 0-.81.069-1.068.12-.144.027-.267.052-.348.052-.066 0-.067-.004-.081-.052-.041-.14-.071-.277-.101-.41-.081-.373-.151-.695-.438-.739-1.829-.282-2.123-.659-2.169-.768a.146.146 0 0 1-.012-.044c2.729-.449 3.94-3.178 4.018-3.358.188-.38.221-.718.099-1.004-.216-.509-.857-.712-1.282-.847a4.506 4.506 0 0 1-.245-.083c-.551-.218-.721-.437-.695-.569.029-.153.295-.309.527-.309.052 0 .098.008.131.023.377.177.721.267 1.022.267.474 0 .685-.221.707-.246l.052-.058-.004-.076a49.15 49.15 0 0 0-.034-.562c-.078-1.224-.173-2.747.202-3.588C9.191 4.326 11.6 4.13 12.31 4.13l.327-.003h.041m0-.439h-.047l-.322.004c-.416 0-1.249.059-2.145.453a4.76 4.76 0 0 0-1.368.906 5.129 5.129 0 0 0-1.143 1.641c-.42.939-.32 2.521-.24 3.793v.002l.026.417a.738.738 0 0 1-.309.059c-.236 0-.518-.076-.835-.225a.741.741 0 0 0-.318-.065c-.189 0-.389.056-.562.157-.218.128-.358.309-.397.509-.024.132-.023.394.268.659.16.146.395.281.698.4.08.032.175.062.274.094.348.11.873.276 1.01.6.07.163.04.378-.088.638l-.01.021a6.174 6.174 0 0 1-.944 1.465 5.303 5.303 0 0 1-1.14 1.008 4.187 4.187 0 0 1-1.601.625.439.439 0 0 0-.368.458c.004.064.02.129.046.191v.001c.09.209.298.387.636.544.412.191 1.029.353 1.834.479.041.077.083.271.112.404.03.142.062.287.107.441.05.167.177.366.504.366.123 0 .266-.027.431-.06.242-.047.572-.112.984-.112.229 0 .466.021.704.061.46.076.855.355 1.314.68.671.474 1.431 1.011 2.591 1.011l.096-.003c.038.001.085.003.136.003 1.161 0 1.92-.537 2.591-1.011l.001-.001c.459-.323.854-.603 1.313-.679.238-.04.476-.061.704-.061.395 0 .706.051.984.104.182.036.323.054.432.054h.022a.474.474 0 0 0 .481-.36c.045-.151.076-.293.107-.437.027-.125.071-.324.112-.402.805-.127 1.422-.287 1.834-.479.337-.156.545-.334.635-.543a.569.569 0 0 0 .047-.193.44.44 0 0 0-.368-.458c-2.508-.413-3.638-2.987-3.684-3.097a.103.103 0 0 0-.011-.021c-.128-.26-.157-.475-.088-.639.137-.322.662-.489 1.01-.599.101-.032.195-.062.274-.094.343-.135.587-.281.748-.447.193-.198.23-.389.229-.513-.006-.302-.236-.568-.603-.699a1.063 1.063 0 0 0-.408-.078.913.913 0 0 0-.38.077c-.293.137-.557.212-.782.223a.7.7 0 0 1-.258-.057l.021-.364.004-.054c.08-1.271.18-2.855-.239-3.795a5.121 5.121 0 0 0-1.147-1.646 4.754 4.754 0 0 0-1.373-.907 5.456 5.456 0 0 0-2.142-.449"/><path fill="none" d="M0 .008h25v24.98H0z"/></svg>