<svg version="1.2" baseProfile="tiny" xmlns="http://www.w3.org/2000/svg" width="25" height="25" viewBox="0 0 25 25"><switch><g><g><path fill="#2DC100" d="M25 21.25A3.75 3.75 0 0 1 21.25 25H3.75A3.75 3.75 0 0 1 0 21.25V3.75A3.75 3.75 0 0 1 3.75 0h17.5A3.75 3.75 0 0 1 25 3.75v17.5z"/><g fill="#FFF"><path d="M16.733 9.323c-2.018.105-3.772.717-5.196 2.099-1.439 1.396-2.097 3.107-1.917 5.228-.789-.098-1.507-.205-2.229-.267-.249-.021-.546.009-.757.128-.702.396-1.374.844-2.171 1.342.146-.662.24-1.241.408-1.798.123-.41.066-.638-.311-.904-2.423-1.71-3.443-4.27-2.68-6.904.708-2.437 2.444-3.915 4.803-4.686 3.22-1.051 6.838.021 8.796 2.578a6.016 6.016 0 0 1 1.254 3.184zm-9.286-.821c.019-.482-.399-.916-.896-.931a.904.904 0 0 0-.94.874.893.893 0 0 0 .885.927.918.918 0 0 0 .951-.87zm4.845-.931c-.497.009-.918.433-.909.917a.91.91 0 0 0 .934.888.891.891 0 0 0 .897-.915.897.897 0 0 0-.922-.89z"/><path d="M21.267 21.902c-.639-.284-1.225-.711-1.849-.776-.622-.065-1.275.294-1.926.36-1.98.202-3.756-.35-5.219-1.703-2.783-2.574-2.386-6.521.835-8.63 2.861-1.875 7.059-1.25 9.076 1.351 1.761 2.271 1.554 5.284-.596 7.19-.622.553-.846 1.007-.447 1.734.075.134.083.304.126.474zm-7.273-7.041a.755.755 0 0 0 .757-.72.756.756 0 0 0-.752-.784.765.765 0 0 0-.76.779.758.758 0 0 0 .755.725zm4.689-1.502a.751.751 0 0 0-.746.719.738.738 0 0 0 .736.777.732.732 0 0 0 .745-.713.746.746 0 0 0-.735-.783z"/></g></g></g></switch></svg>