<svg version="1.2" baseProfile="tiny" xmlns="http://www.w3.org/2000/svg" width="25" height="25" viewBox="0 0 25 25"><switch><g><path fill="#25D366" d="M20.479 0H4.557C2.057-.006.003 2.021 0 4.518v15.928C-.003 22.948 2.021 25 4.521 25h15.922c2.501.006 4.553-2.021 4.557-4.518V4.554C25.004 2.051 22.979 0 20.479 0"/><g><path fill-rule="evenodd" fill="#FFF" d="M17.814 7.154a7.422 7.422 0 0 0-5.283-2.19c-4.117 0-7.468 3.351-7.469 7.468a7.454 7.454 0 0 0 .997 3.734L5 20.036l3.959-1.039a7.446 7.446 0 0 0 3.569.909h.003c4.115 0 7.467-3.351 7.469-7.469a7.423 7.423 0 0 0-2.186-5.283m-5.283 11.492h-.003a6.21 6.21 0 0 1-3.159-.865l-.227-.135-2.35.616.627-2.291-.147-.234a6.2 6.2 0 0 1-.949-3.304 6.216 6.216 0 0 1 6.21-6.207c1.658 0 3.217.647 4.389 1.82a6.174 6.174 0 0 1 1.816 4.392c-.001 3.422-2.786 6.208-6.207 6.208m3.406-4.65c-.188-.094-1.104-.545-1.276-.607-.171-.062-.295-.093-.419.094-.125.187-.482.607-.591.731-.109.125-.218.141-.404.047s-.788-.291-1.501-.927a5.57 5.57 0 0 1-1.038-1.292c-.109-.188-.012-.288.082-.381.084-.084.187-.218.279-.327.094-.109.125-.187.187-.312.062-.124.031-.233-.015-.327-.047-.093-.42-1.012-.576-1.385-.151-.364-.305-.315-.42-.321a8.032 8.032 0 0 0-.357-.006.687.687 0 0 0-.498.233c-.171.187-.652.639-.652 1.557 0 .919.669 1.806.762 1.931.093.124 1.316 2.009 3.188 2.817.445.192.792.308 1.063.394.447.142.854.122 1.175.073.358-.053 1.104-.451 1.26-.887.156-.437.156-.81.109-.888s-.173-.123-.358-.217"/></g></g></switch></svg>